<?xml version="1.0" encoding="utf-8"?>
<!-- Generator: Adobe Illustrator 16.0.0, SVG Export Plug-In . SVG Version: 6.00 Build 0)  -->
<!DOCTYPE svg PUBLIC "-//W3C//DTD SVG 1.1//EN" "http://www.w3.org/Graphics/SVG/1.1/DTD/svg11.dtd">
<svg version="1.1" id="Layer_1" xmlns="http://www.w3.org/2000/svg" xmlns:xlink="http://www.w3.org/1999/xlink" x="0px" y="0px"
	 width="633.75px" height="493.25px" viewBox="382.045 190.5 633.75 493.25" enable-background="new 382.045 190.5 633.75 493.25"
	 xml:space="preserve">
<g>
	<path fill="#001C40" d="M1015.795,528.52c0,8.651-7.079,15.73-15.73,15.73H397.775c-8.652,0-15.73-7.079-15.73-15.73V206.23
		c0-8.652,7.079-15.73,15.73-15.73h602.289c8.65,0,15.729,7.079,15.729,15.73L1015.795,528.52L1015.795,528.52z"/>
</g>
<g>
	<path fill="#001C40" d="M798.011,541.92l96.002,111.002c-26.659-64.107-16.159-110.608-16.159-110.608"/>
</g>
<g>
	<path fill="#FFFFFF" d="M696.455,371.302h-19.688v20.336h-10.254v-49.765h32.402v8.306h-22.148v12.853h19.688V371.302
		L696.455,371.302z"/>
	<path fill="#FFFFFF" d="M720.518,392.322c-5.424,0-9.838-1.662-13.243-4.99c-3.407-3.326-5.11-7.758-5.11-13.295v-0.957
		c0-3.714,0.718-7.035,2.153-9.963s3.469-5.185,6.102-6.769c2.631-1.583,5.633-2.375,9.006-2.375c5.06,0,9.041,1.596,11.945,4.785
		c2.906,3.19,4.357,7.713,4.357,13.569v4.033h-23.55c0.318,2.416,1.281,4.353,2.89,5.811c1.604,1.458,3.64,2.188,6.101,2.188
		c3.806,0,6.778-1.378,8.921-4.137l4.854,5.436c-1.481,2.096-3.486,3.729-6.017,4.903
		C726.397,391.737,723.594,392.322,720.518,392.322z M719.39,361.938c-1.96,0-3.55,0.663-4.769,1.991s-1.999,3.228-2.341,5.699
		h13.739v-0.79c-0.046-2.197-0.638-3.896-1.776-5.098S721.486,361.938,719.39,361.938z"/>
	<path fill="#FFFFFF" d="M758.354,392.322c-5.423,0-9.839-1.662-13.244-4.99c-3.406-3.326-5.109-7.758-5.109-13.295v-0.957
		c0-3.714,0.718-7.035,2.153-9.963s3.47-5.185,6.101-6.769c2.633-1.583,5.635-2.375,9.007-2.375c5.06,0,9.04,1.596,11.946,4.785
		c2.904,3.19,4.357,7.713,4.357,13.569v4.033h-23.551c0.319,2.416,1.282,4.353,2.889,5.811s3.641,2.188,6.102,2.188
		c3.805,0,6.779-1.378,8.921-4.137l4.854,5.436c-1.481,2.096-3.486,3.729-6.017,4.903
		C764.233,391.737,761.431,392.322,758.354,392.322z M757.227,361.938c-1.96,0-3.549,0.663-4.768,1.991
		c-1.22,1.328-2,3.228-2.342,5.699h13.74v-0.79c-0.047-2.197-0.64-3.896-1.777-5.098
		C760.939,362.538,759.322,361.938,757.227,361.938z"/>
	<path fill="#FFFFFF" d="M777.632,372.875c0-5.765,1.293-10.356,3.88-13.774c2.586-3.418,6.123-5.127,10.612-5.127
		c3.601,0,6.573,1.346,8.921,4.033V339.14h9.912v52.5h-8.921l-0.479-3.93c-2.461,3.076-5.628,4.613-9.502,4.613
		c-4.353,0-7.845-1.714-10.476-5.145C778.947,383.75,777.632,378.981,777.632,372.875z M787.51,373.61
		c0,3.469,0.604,6.128,1.813,7.976c1.208,1.849,2.962,2.773,5.264,2.773c3.054,0,5.206-1.289,6.46-3.868v-14.617
		c-1.229-2.579-3.36-3.868-6.392-3.868C789.891,362.005,787.51,365.874,787.51,373.61z"/>
	<path fill="#FFFFFF" d="M851.938,373.49c0,5.925-1.265,10.544-3.793,13.859c-2.529,3.316-6.063,4.974-10.597,4.974
		c-4.011,0-7.212-1.537-9.604-4.613l-0.444,3.93h-8.887v-52.5h9.878v18.833c2.278-2.666,5.273-3.999,8.989-3.999
		c4.512,0,8.049,1.658,10.612,4.974c2.563,3.314,3.845,7.98,3.845,13.997V373.49z M842.061,372.772c0-3.737-0.593-6.466-1.776-8.187
		c-1.187-1.72-2.951-2.581-5.298-2.581c-3.146,0-5.311,1.288-6.494,3.862v14.595c1.208,2.598,3.396,3.896,6.563,3.896
		c3.19,0,5.286-1.572,6.289-4.718C841.821,378.138,842.061,375.848,842.061,372.772z"/>
	<path fill="#FFFFFF" d="M879.453,391.639c-0.456-0.889-0.786-1.992-0.991-3.313c-2.393,2.666-5.503,3.998-9.331,3.998
		c-3.623,0-6.625-1.047-9.006-3.146c-2.382-2.096-3.572-4.738-3.572-7.929c0-3.919,1.453-6.927,4.357-9.023
		c2.906-2.096,7.104-3.155,12.596-3.179h4.546v-2.119c0-1.709-0.438-3.076-1.314-4.102c-0.878-1.025-2.263-1.538-4.153-1.538
		c-1.663,0-2.968,0.399-3.913,1.196c-0.946,0.798-1.419,1.892-1.419,3.28h-9.878c0-2.142,0.66-4.124,1.981-5.946
		c1.321-1.823,3.189-3.252,5.605-4.29c2.415-1.037,5.127-1.556,8.135-1.556c4.558,0,8.174,1.146,10.853,3.436
		c2.678,2.29,4.017,5.509,4.017,9.656v16.029c0.022,3.51,0.514,6.164,1.47,7.964v0.58L879.453,391.639L879.453,391.639z
		 M871.284,384.769c1.458,0,2.803-0.324,4.033-0.974c1.229-0.648,2.142-1.521,2.733-2.615v-6.356h-3.69
		c-4.944,0-7.577,1.709-7.896,5.127l-0.034,0.581c0,1.229,0.434,2.245,1.299,3.042C868.596,384.371,869.78,384.769,871.284,384.769z
		"/>
	<path fill="#FFFFFF" d="M910.933,384.359c1.822,0,3.305-0.501,4.443-1.504s1.731-2.336,1.777-3.999h9.263
		c-0.023,2.507-0.707,4.802-2.051,6.887c-1.346,2.085-3.186,3.703-5.521,4.854c-2.336,1.151-4.916,1.727-7.741,1.727
		c-5.286,0-9.456-1.681-12.51-5.041c-3.054-3.361-4.58-8.003-4.58-13.928v-0.649c0-5.696,1.515-10.242,4.546-13.638
		c3.03-3.396,7.188-5.094,12.477-5.094c4.625,0,8.334,1.316,11.125,3.948s4.21,6.135,4.256,10.51h-9.264
		c-0.045-1.924-0.639-3.486-1.776-4.689c-1.14-1.203-2.644-1.804-4.512-1.804c-2.303,0-4.039,0.839-5.214,2.516
		c-1.174,1.677-1.76,4.399-1.76,8.164v1.027c0,3.812,0.581,6.55,1.743,8.216C906.797,383.526,908.563,384.359,910.933,384.359z"/>
	<path fill="#FFFFFF" d="M945.488,376.805l-3.556,3.556v11.278h-9.878v-52.5h9.878v29.087l1.914-2.461l9.468-11.107h11.86
		l-13.364,15.415l14.526,21.566H954.99L945.488,376.805z"/>
</g>
<path fill="none" stroke="#FFFFFF" stroke-width="10" stroke-miterlimit="10" d="M548.599,260.561c0,0,23.108-2.616,23.544,24.852
	c0.437,27.468,0.437,36.472,0.437,36.472s-3.488-0.285,22.672-0.285s27.903,30.955,27.903,30.955v64.039
	c0,0,0.001,25.049-27.031,24.978c-27.032-0.072-81.096,0-81.096,0s-34.929,0.08-34.929-22.976s0-83.223,0-83.223
	s27.944-4.279,43.083-29.905c2.604-4.409,2.311-20.928,2.311-20.928S524.62,261.433,548.599,260.561z"/>
<g>
	<path fill="none" stroke="#FFFFFF" stroke-width="10" stroke-miterlimit="10" d="M480.099,433.571c0,4.398-3.6,8-8,8h-35.835
		c-4.399,0-8-3.602-8-8V330.473c0-4.399,3.601-8,8-8h35.835c4.4,0,8,3.601,8,8V433.571z"/>
</g>
<g id="Layer_2" display="none">
	
		<image display="inline" overflow="visible" enable-background="new    " width="512" height="512" xlink:href="81263825.png"  transform="matrix(0.7499 0 0 0.7499 489 217.0005)">
	</image>
</g>
<g id="Layer_3" display="none">
</g>
</svg>
