<?xml version="1.0" encoding="utf-8"?>
<!-- Generator: Adobe Illustrator 16.0.0, SVG Export Plug-In . SVG Version: 6.00 Build 0)  -->
<!DOCTYPE svg PUBLIC "-//W3C//DTD SVG 1.1//EN" "http://www.w3.org/Graphics/SVG/1.1/DTD/svg11.dtd">
<svg version="1.1" id="Layer_1" xmlns="http://www.w3.org/2000/svg" xmlns:xlink="http://www.w3.org/1999/xlink" x="0px" y="0px"
	 width="790.91px" height="719.48px" viewBox="0 0 790.91 719.48" enable-background="new 0 0 790.91 719.48" xml:space="preserve">
<path fill="#001C40" d="M757.822,373.737c78.416,159.765-150.928,272.069-320.91,322.245
	C278.696,742.685,43.947,555.663,116.001,373.737C181.538,208.271,324.06,188.153,436.912,51.492
	C515.145-43.246,677.762,210.622,757.822,373.737z"/>
<polygon fill="#235BCC" points="326.211,395.819 388.993,528.917 387.22,536.915 380.947,540.679 363.298,551.282 351.21,558.544 
	312.879,489.441 312.879,452.11 316.203,397.004 "/>
<path fill="#331702" d="M476.1,155.696c0,0-3.539,11.062-5.596,13.767c-2.055,2.706-2.322-13.583-2.322-13.583
	S473.654,150.623,476.1,155.696z"/>
<path fill="#F6AB91" d="M376.724,381.249c12.667-6.78,11.315-7.914,5.96-5.742c-19.761,7.998-13.186,0.422-13.186,0.422
	c15.297-5.163,14.681-5.875,8.976-4.886c-20.604,3.595-14.682-2.171-14.682-2.171l12.594-2.956c5.755-2.147,4.523-3.836-0.748-2.569
	c-21.762,5.211-12.943-0.76-12.943-0.76l14.029-6.166l19.603-0.711l5.741,15.731C370.656,390.803,376.724,381.249,376.724,381.249z"
	/>
<path fill="#E0B89D" d="M521.098,197.004c5.021,2.05,19.593,5.416,20.679,30.581c1.071,25.164,2.051,57.023,2.051,57.023
	s-0.967,24.609-3.305,54.455l-96.173,0.072l41.74-0.157c0,0,0.482-11.46,3.017-24.308c2.532-12.835,10.157-61.921,9.254-76.217
	c-0.906-14.307-2.377-34.755-22.922-36.226l-1.894-3.342c0.795-0.253,1.615-0.411,2.461-0.471
	C476.006,198.415,510.555,192.697,521.098,197.004z"/>
<path fill="#F6AB91" stroke="#AD6659" stroke-miterlimit="10" d="M436.189,194.048c0,0,0.799-7.738-0.576-8.136
	c-17.095-4.885-14.911-21.063-14.911-21.063s0.604-13.041,0.712-17.045c0.157-6.032,0.146-21.907,0.146-21.907h32.512
	c0,0,11.677,0.796,13.57,8.782c1.896,7.974-0.482,10.398-0.482,10.398s-0.373,0.012-0.435,7.503
	c-0.023,1.955,5.525,1.761,5.537-1.713c0.023-3.486,0.098-4.488,0.098-4.488s0.565-2.208,1.762-2.497
	c1.206-0.277,3.8-1.224,4.522-0.35c4.807,5.808,1.734,9.961-0.488,11.369c0,0-1.077,0.894-1.384,0.983
	c-4.586,1.335-3.447-0.458-4.122,2.981c-0.678,3.438-2.101,10.604-2.101,10.604l-2.323,22.245l-18.387,3.689l-0.789,8.784
	l-5.632-0.012l-0.699-10.121l-6.653-0.315"/>
<path fill="#331702" d="M478.362,142.631c0,0-3.036,1.901-4.242,2.187c-1.195,0.297-0.938,2.29-0.938,2.29s-0.147,1.392-0.172,4.973
	c-0.012,3.568-7.249,3.545-7.225,1.538c0.061-7.694,0.344-8.149,0.344-8.149s3.406-1.916,1.512-10.105
	c-1.895-8.203-13.57-9.021-13.57-9.021H421.56c-12.016-3.767-15.937-17.879-9.675-12.478c4.874,4.201,12.039,0.568,12.039,0.568
	s8.07-6.999,23.994-4.421C486.701,116.307,474.719,132.607,478.362,142.631z"/>
<path fill="#AF8E7F" d="M539.23,354.48l33.088-0.072l0.014,0.096l-33.115,0.024C539.217,354.503,539.217,354.492,539.23,354.48z"/>
<path fill="#AF8E7F" d="M539.217,354.528l-14.113,0.012l-0.012-0.036l14.139-0.022C539.217,354.492,539.217,354.503,539.217,354.528
	z"/>
<path fill="#4C4338" d="M380.947,540.679l4.21,5.514l-6.297,28.324c-5.562,4.15-11.666,8.469-17.444,12.123
	c-3.715,2.354-9.457-2.158-4.584-7.938c4.874-5.778,12.269-13.849,12.269-13.849l-5.802-13.571L380.947,540.679z"/>
<path fill="#773F19" d="M447.029,145.6c0-1.167,0.942-2.129,2.11-2.129c1.166,0,2.111,0.961,2.111,2.129
	c0,1.184-0.945,2.145-2.111,2.145C447.973,147.745,447.029,146.784,447.029,145.6z"/>
<path fill="#E0B89D" d="M525.104,343.683l8.976,44.067c-2.642,17.457-2,28.779-8.976,33.487c-6.877,4.642-13.329,4.403-13.329,4.403
	l-17.216,0.712l-25.309,0.629l-17.189,0.818l-24.151,0.845l-19.734,0.688c0,0-16.662,0.761-30.873-0.761
	c-3.755-0.402-11.645-10.782,3.983-14.574c23.938-5.811,61.956,1.195,61.956,1.195s-0.097-3.112-0.191-8.602
	c41.101,4.995,38.711-61.741,38.711-61.741l-38.604-0.012c0-0.362,0.012-0.712,0.022-1.074L525.104,343.683z"/>
<path fill="#1FCC8A" d="M443.145,356.228l17.371,0.193c-2.483,1.508-9.95,2.473-17.432,3.088
	C443.098,358.424,443.121,357.327,443.145,356.228z"/>
<g>
	<path fill="#AF8E7F" d="M574.045,354.963c-0.277-3.342-3.25-6.074-6.604-6.072l-20.918,0.017
		c-3.354,0.002-8.843,0.007-12.195,0.009l-1.92,0.002c-3.354,0.002-5.562,2.696-4.906,5.985l6.594,33.087
		c0.654,3.288,1.729,8.67,2.383,11.959l40.839,204.766c0.655,3.289,3.938,5.979,7.291,5.979h4.633c3.354,0,5.869-2.734,5.592-6.076
		L574.045,354.963z"/>
</g>
<path fill="#1FCC8A" d="M408.624,276.353c0,9.021-17.737,23.036-26.859,28.204c-6.121,3.468-19.585,10.465-26.763,12.696
	c-14.29,4.441-41.381,10.418-65.967,7.647l-8.891-23.298l38.484-5.947c0,0,37.313-2.059,59.237-29.086
	c21.923-27.028,37.558-47.971,37.558-47.971c9.166-12.51,17.877-14.307,17.877-14.307l2.269-10.363l0.157-0.699l6.947,0.82
	l0.699,10.121l4.5,0.012l1.412-9.88l19.434-3.92l4.826,8.505l1.893,3.342c20.546,1.471,22.017,21.919,22.923,36.226
	c0.903,14.295-6.722,63.381-9.255,76.217c-2.532,12.847-3.016,27.928-3.016,27.928l-41.74,0.157h-0.733l-50.774-2.377
	c9.276-12.015,17.732-77.701,17.732-77.701"/>
<path fill="#773F19" d="M427.463,143.326c1.168,0,2.111,0.961,2.111,2.146c0,1.167-0.943,2.129-2.111,2.129
	c-1.166,0-2.109-0.961-2.109-2.129C425.354,144.287,426.297,143.326,427.463,143.326z"/>
<path fill="#1FCC8A" d="M396.327,355.71l46.816,0.518c-0.022,1.1-0.047,2.196-0.061,3.281c-9.18,0.75-18.371,0.965-18.371,0.965
	s-12.752,7.096-17.649,10.255c-4.909,3.161-4.994,0.713-4.994,0.713L396.327,355.71z"/>
<path fill="#AF8E7F" d="M392.841,339.171l50.774-0.037l-50.895,0.193C392.756,339.28,392.805,339.22,392.841,339.171z"/>
<path opacity="0.2" enable-background="new    " d="M399.727,411.428c0,0,33.306,11.792,52.334,9.223
	c19.029-2.569-18.6-14.461-18.6-14.461L399.727,411.428z"/>
<g id="XMLID_35_">
	<polygon fill="#3A2B21" points="519.289,504.851 522.605,516.094 520.99,516.129 517.781,505.224 517.672,504.874 	"/>
	<polygon fill="#3A2B21" points="404.083,506.72 403.795,507.673 401.092,518.507 398.97,518.542 402.672,506.745 	"/>
	<polygon fill="#3A2B21" points="511.773,425.642 549.531,596.424 544.912,597.377 520.99,516.129 522.605,516.094 519.289,504.851 
		517.672,504.874 514.463,493.981 494.559,426.354 	"/>
	<polygon fill="#3A2B21" points="517.781,505.224 520.99,516.129 466.982,517.179 464.473,604.868 457.801,605.085 454.75,517.445 
		401.092,518.507 403.795,507.673 404.083,506.72 454.352,505.912 467.307,505.684 517.672,504.874 	"/>
	<polygon fill="#3A2B21" points="469.25,426.981 467.307,505.684 454.352,505.912 452.061,427.801 	"/>
	<polygon fill="#3A2B21" points="427.908,428.646 404.083,506.72 402.672,506.745 398.97,518.542 401.092,518.507 389.101,566.65 
		378.86,574.517 387.22,526.046 388.993,518.048 408.174,429.334 	"/>
	<path fill="#3A2B21" d="M378.86,574.517c3.739-2.773,7.25-5.477,10.241-7.865l-11.653,38.206l-5.332,0.022L378.86,574.517z"/>
</g>
<path opacity="0.2" enable-background="new    " d="M319.146,402.77c0,0,0.466,75.404-2.9,92.741
	c-3.367,17.336-30.031-60.583-30.031-60.583l5.037-28.441L319.146,402.77z"/>
<path fill="#235BCC" d="M481.76,355.71l-38.604-0.013l-176.667-0.048c-16.394,16.008,3.98,224.645,3.98,224.645l20.375-2.003
	l20.58-2.026l7.696-0.76c-2.932-55.998-3.377-95.519-2.919-122.479c0.627-36.843,2.943-50.258,2.943-50.258l2.111-0.952
	c0,0,83.43,9.662,120.427,15.453c0.461,0.072,0.918,0.133,1.365,0.192C484.148,422.457,481.76,355.71,481.76,355.71z
	 M443.084,359.509c-9.18,0.75-18.371,0.965-18.371,0.965s-12.752,7.096-17.648,10.255c-4.91,3.161-4.995,0.713-4.995,0.713
	c-31.413,19.36-25.344,9.808-25.344,9.808c12.667-6.78,11.315-7.914,5.96-5.742c-19.761,7.998-13.186,0.422-13.186,0.422
	c15.297-5.163,14.681-5.875,8.976-4.886c-20.604,3.595-14.682-2.171-14.682-2.171l12.594-2.956c5.755-2.146,4.523-3.836-0.748-2.569
	c-21.762,5.211-12.943-0.76-12.943-0.76l14.029-6.166l19.603-0.711l46.816,0.519l17.371,0.192
	C458.031,357.929,450.564,358.894,443.084,359.509z"/>
<path fill="#4690EE" d="M209.091,339.328l139.236-0.121c-0.145,0.084-0.241,0.121-0.241,0.121H209.091z"/>
<g>
	<path fill="#4690EE" d="M353.549,336.188c-2.872,1.661-7.936,3.021-11.253,3.024l-127.172,0.11
		c-3.317,0.003-6.948-2.549-8.068-5.672l-29.198-81.39c-1.12-3.123,0.678-5.677,3.995-5.677h76.554c3.317,0,6.845,2.589,7.839,5.754
		l12.092,38.506c0.994,3.165,2.62,8.344,3.613,11.51l5.267,16.79c0.993,3.165,1.809,5.756,1.812,5.756
		c0.003,0,0.593,1.869,1.309,4.155c0.717,2.286,4.016,4.261,7.331,4.388c0,0,9.993,0.384,33.034,0.637
		C356.735,334.346,353.549,336.188,353.549,336.188z"/>
</g>
<path fill="#4C4338" d="M314.14,597.207c0,0,1.158,4.646-4.765,5.587c-9.397,1.482-24.706,3.497-37.771,4.04
	c-4.378,0.182-7.105-6.598,0-9.167c7.118-2.571,17.553-5.863,17.553-5.863l1.689-13.512l20.58-2.026L314.14,597.207z"/>
<polygon fill="#AF8E7F" points="136.482,354.408 183.722,354.503 183.65,354.865 136.445,354.902 "/>
<g>
	<path fill="#AF8E7F" d="M177.552,349.262c3.354-0.003,5.561,2.687,4.905,5.975l-49.753,249.479
		c-0.656,3.289-3.936,5.979-7.29,5.979h-4.633c-3.354,0-5.87-2.734-5.592-6.076l20.75-249.249c0.278-3.342,3.25-6.078,6.604-6.081
		L177.552,349.262z"/>
</g>
<g>
	<path fill="#8F0000" d="M447.525,175.26c-0.089,0-0.175-0.023-0.252-0.069c-4.55-2.704-13.107-3.414-13.193-3.42
		c-0.209-0.017-0.385-0.164-0.439-0.367c-0.053-0.203,0.027-0.417,0.201-0.535c2.096-1.415,4.129-2.131,6.041-2.131
		c5.422,0,7.986,5.588,8.094,5.827c0.089,0.196,0.037,0.427-0.123,0.57C447.76,175.218,447.643,175.26,447.525,175.26z"/>
	<path fill="#8F0000" d="M439.883,169.231c5.164,0,7.644,5.535,7.644,5.535c-4.703-2.795-13.406-3.488-13.406-3.488
		C436.318,169.794,438.236,169.231,439.883,169.231 M439.883,168.244c-2.014,0-4.139,0.746-6.315,2.216
		c-0.349,0.235-0.511,0.664-0.402,1.07c0.104,0.406,0.457,0.7,0.877,0.734c0.084,0.007,8.531,0.708,12.979,3.352
		c0.155,0.093,0.331,0.139,0.506,0.139c0.235,0,0.471-0.085,0.655-0.25c0.322-0.287,0.423-0.749,0.244-1.142
		C448.314,174.113,445.621,168.244,439.883,168.244L439.883,168.244z"/>
</g>
<polyline opacity="0.2" enable-background="new    " points="573.313,357.53 574.781,363.321 530.178,366.035 528.482,357.53 "/>
<path opacity="0.2" enable-background="new    " d="M520.639,221.047c0,0,13.881,13.351,10.668,59.261
	c-3.215,45.91-7.313,96.057-7.313,96.057s-4.06,38.547-12.219,49.275l8.864-55.135c0,0,9.738-94.273,7.386-114.223
	C525.671,236.333,520.639,221.047,520.639,221.047z"/>
<path fill="none" stroke="#AD6659" stroke-width="1.206" stroke-linecap="round" stroke-linejoin="round" stroke-miterlimit="10" d="
	M436.256,146.591l-3.1,10.447c0,0-0.965,2.81,0.688,2.834c3.004,0.036,2.906,0.76,2.906,0.76"/>
<path opacity="0.2" enable-background="new    " d="M498.359,247.457c0,0-3.103,3.075-3.396,6.065
	c-0.293,2.99-4.426,37.681-7.209,46.015c-2.785,8.333-5.219,17.76-18.211,27.25c-12.994,9.49-11.854,13.71-11.854,13.71
	l11.854-0.387c0,0,18.104-19.052,19.562-25.439C490.561,308.284,499.256,250.495,498.359,247.457z"/>
<path fill="none" stroke="#AD6659" stroke-width="1.206" stroke-linecap="round" stroke-linejoin="round" stroke-miterlimit="10" d="
	M475.311,147.11c0,0,7.025-0.519,0.789,6.378"/>
<polyline opacity="0.2" enable-background="new    " points="136.445,357.53 134.976,363.321 183.413,366.422 186.365,356.228 "/>
<g id="XMLID_33_">
	<g>
		<g>
			<path fill="#AF8E7F" d="M602.707,339.01c3.318-0.004,6.031,2.707,6.031,6.024v9.48c0,3.318-2.713,6.036-6.031,6.041
				l-24.344,0.032c-3.318,0.005-6.035-0.021-6.037-0.059c-0.004-0.036-2.721-0.06-6.039-0.049l-21.025,0.063
				c-3.317,0.01-8.746,0.023-12.063,0.033l-2.076,0.004c-3.318,0.01-6.029,0.027-6.025,0.04c0.002,0.014-2.709,0.028-6.024,0.033
				l-69.861,0.103c-3.316,0.006-8.744,0.013-12.063,0.019l-247.467,0.32c-3.317,0.005-6.016-0.105-5.996-0.245
				s-2.678-0.262-5.996-0.271l-35.177-0.099c-3.317-0.011-6.04,0.138-6.05,0.325c-0.01,0.189-2.732,0.349-6.05,0.353l-25.417,0.033
				c-3.317,0.004-6.032-2.708-6.032-6.024V345.6c0-3.316,2.714-6.034,6.032-6.038l98.063-0.097
				c3.317-0.003,8.746-0.006,12.063-0.006h126.932c3.317,0,6.053-0.014,6.08-0.03c0.026-0.016,2.907-0.143,6.225-0.146l32.451-0.043
				c3.317-0.005,6.012,0.026,5.989,0.069s2.635,0.137,5.952,0.118l38.833-0.212c3.316-0.018,6.195-0.033,6.398-0.033
				c0.202,0,3.082-0.003,6.397-0.006l84.109-0.085c3.315-0.003,8.744-0.009,12.063-0.013L602.707,339.01z"/>
		</g>
	</g>
</g>
<path opacity="0.2" enable-background="new    " d="M463.689,233.957l1.864,0.29c0,0,7.422,66.007-43.403,92.854l-15.17,11.073
	l-1.021-0.477l10.026-11.432c0,0,24.727-72.302,29.172-122.083l1.778-0.007c0,0-5.311,58.255-26.905,119.191h1.748
	C421.779,323.366,459.803,314.512,463.689,233.957z"/>
<path opacity="0.2" enable-background="new    " d="M410.17,251.962c-0.117-0.466,1.607,1.061,1.607,1.061
	s-1.369,29.065-5.187,34.289C406.592,287.312,411.963,259.084,410.17,251.962z"/>
<path opacity="0.2" enable-background="new    " d="M433.301,204.29l10.072-0.121c0,0,0.176-10.018-0.699-10.121
	c-6.947-0.82-6.947-0.82-6.947-0.82L433.301,204.29z"/>
<polygon opacity="0.2" enable-background="new    " points="475.438,202.228 447.873,204.181 449.285,194.301 468.719,190.381 "/>
<path opacity="0.2" enable-background="new    " d="M443.09,195.194c0.299,3.386,0.283,8.976,0.283,8.976l0,0l-0.699-10.121
	C443.135,194.406,443.063,194.891,443.09,195.194z"/>
<ellipse fill="#44725E" cx="439.741" cy="199.563" rx="1.618" ry="2.021"/>
<path fill="none" stroke="#331702" stroke-width="1.2063" stroke-linecap="round" stroke-linejoin="round" stroke-miterlimit="10" d="
	M423.879,141.438c0,0,2.654-1.918,6.904,0"/>
<path fill="none" stroke="#331702" stroke-width="1.2063" stroke-linecap="round" stroke-linejoin="round" stroke-miterlimit="10" d="
	M445.689,142.012c0,0,2.653-1.918,6.901,0"/>
<g>
	<path fill="#879CAF" d="M154.286,219.371c0,2.75-2.25,5-5,5H25.013c-2.75,0-5-2.25-5-5v-72.83c0-2.75,2.25-5,5-5h124.273
		c2.75,0,5,2.25,5,5V219.371L154.286,219.371z"/>
</g>
<g>
	<g id="XMLID_32_">
		<path fill="#001C40" d="M95.448,182.38c0,0,1.084,0.891,0.425,2.448c-0.661,1.56-1.686,1.779-2.444,1.794
			c-0.646,0.012-2.038-0.001-2.656-2.029c-0.159-0.521-0.207-1.136,0-1.587c0,0,0.851-1.343,2.456-1.246
			C94.833,181.855,95.448,182.38,95.448,182.38z"/>
		<path fill="#001C40" d="M87.288,164.442c-0.002,0-0.004,0.001-0.009,0.001c-0.001,0-0.001,0-0.002,0
			c-0.014,0-0.037-0.001-0.066-0.002C87.236,164.438,87.262,164.441,87.288,164.442z"/>
		<polygon fill="#001C40" points="87.241,196.409 87.252,196.411 87.241,196.411 		"/>
		<path fill="#001C40" d="M88.286,192.716c-0.268-1.394-0.749-1.754-0.952-1.844c-0.012,0-0.023,0-0.037,0
			c-0.019,0-0.039,0-0.057-0.003c-0.008,0-0.017-0.001-0.025-0.002c-0.193,0.081-0.689,0.428-0.964,1.849
			c-0.219,1.139,0.496,1.399,0.851,1.46h0.168c0.008,0,0.019,0,0.027,0.001c0.026,0,0.05,0.001,0.073,0.01
			C87.69,194.146,88.521,193.93,88.286,192.716z"/>
		<path fill="#001C40" d="M101.483,173.557c-4.093-9.492-13.458-9.157-14.196-9.115c-0.002,0-0.004,0.001-0.009,0.001
			c-0.001,0-0.001,0-0.002,0c-0.014,0-0.037-0.001-0.066-0.002h-0.007c-1.027-0.049-10.128-0.202-14.146,9.116
			c-3.555,8.241,0.946,14.542,0.946,14.542c-0.32,4.181,0.66,5.357,3.094,4.973c3.69-0.584,3.621,2.795,3.621,2.795
			c-0.795,4.033,2.799,3.885,2.799,3.885l3.724-0.031h0.057l3.726,0.031c0,0,3.593,0.148,2.797-3.885c0,0-0.069-3.379,3.622-2.795
			c2.434,0.385,3.413-0.792,3.094-4.973C100.537,188.099,105.036,181.798,101.483,173.557z M81.054,188.64
			c-1.387-0.024-3.259-0.432-4.468-3.281s0.777-4.479,0.777-4.479s1.156-1.608,4.058-1.134c2.889,0.472,4.491,2.277,4.491,2.277
			c0.375,0.83,0.29,1.952,0,2.903C84.781,188.636,82.234,188.663,81.054,188.64z M88.376,196.246
			c-0.32,0.086-0.802,0.148-1.06,0.162c-0.006,0-0.012,0.001-0.019,0.001v0.002c-0.002,0-0.008,0-0.013-0.002
			c-0.002,0.002-0.002,0.002-0.004,0c-0.007,0.002-0.015,0.002-0.022,0.002H87.24v-0.002h-0.006
			c-0.255-0.011-0.749-0.076-1.072-0.163c-1.159-0.306-2.809-1.875-1.719-4.757c0.678-1.802,1.731-2.678,2.578-2.824
			c0.039,0.012,0.083,0.022,0.132,0.022c0.069,0,0.13-0.014,0.183-0.038c0.019,0.002,0.036,0.004,0.055,0.008
			c0.09,0.015,0.18,0.027,0.27,0.043c0.04,0.007,0.078,0.021,0.111,0.04c0.005,0,0.013-0.005,0.02-0.006c0.002,0,0.002,0,0.002,0
			c0.788,0.273,1.695,1.145,2.302,2.755C91.184,194.371,89.534,195.94,88.376,196.246z M97.953,185.359
			c-1.208,2.85-3.083,3.257-4.467,3.281c-1.183,0.022-3.727-0.004-4.858-3.713c-0.289-0.951-0.377-2.073,0-2.903
			c0,0,1.473-1.905,4.49-2.277c2.919-0.36,4.058,1.134,4.058,1.134S99.162,182.51,97.953,185.359z"/>
		<path fill="#001C40" d="M83.768,183.006c0.207,0.451,0.159,1.066,0,1.587c-0.62,2.028-2.01,2.041-2.656,2.029
			c-0.758-0.015-1.782-0.234-2.443-1.794c-0.662-1.558,0.424-2.448,0.424-2.448s0.615-0.525,2.22-0.62
			C82.917,181.664,83.768,183.006,83.768,183.006z"/>
	</g>
	<path fill="#001C40" d="M98.877,166.079c0,0,0.855-0.06,0.999-0.86c0.145-0.805,0.245-2.225,0.245-2.225s-0.08-2.56,1.144-3.521
		c1.225-0.958,2.702-1.489,4.526-0.856c1.824,0.634,2.043,2.195,2.497,2.662c0.453,0.467,0.678,0.692,1.078,0.914
		c0.4,0.22,1.597,0.705,2.229,2.534c0.633,1.833-0.575,3.563-0.575,3.563s-0.773,1.35-2.279,1.593
		c-1.506,0.244-1.667-0.116-2.685,0.103c-1.017,0.217-1.657,0.137-3.23,1.611C102.825,171.596,102.683,168.829,98.877,166.079z
		 M72.433,193.282c-1.574,1.474-3.174,2.429-4.19,2.646c-1.018,0.218-1.18-0.142-2.685,0.104c-1.506,0.242-2.279,1.592-2.279,1.592
		s-1.207,1.729-0.575,3.56c0.632,1.831,1.829,2.315,2.229,2.536c0.401,0.221,0.625,0.446,1.078,0.915
		c0.454,0.465,0.674,2.026,2.498,2.66c1.823,0.634,3.301,0.103,4.525-0.858c1.224-0.959,1.145-3.52,1.145-3.52
		s0.099-1.418,0.244-2.221c0.145-0.802,3.416-4.346,3.416-4.346C73.791,195.541,72.433,193.282,72.433,193.282z M75.421,166.079
		c0,0-0.854-0.06-0.999-0.86c-0.145-0.805-0.244-2.225-0.244-2.225s0.079-2.56-1.145-3.521c-1.223-0.958-2.702-1.489-4.525-0.856
		c-1.824,0.634-2.044,2.195-2.498,2.662c-0.453,0.467-0.677,0.692-1.078,0.914c-0.4,0.22-1.596,0.705-2.229,2.534
		c-0.632,1.833,0.575,3.563,0.575,3.563s0.773,1.35,2.279,1.593c1.505,0.244,1.668-0.116,2.685,0.103
		c1.017,0.217,1.656,0.137,3.229,1.611C71.472,171.596,71.616,168.829,75.421,166.079z M96.459,196.35c0,0,3.273,3.544,3.417,4.346
		c0.144,0.803,0.244,2.221,0.244,2.221s-0.08,2.561,1.144,3.52c1.225,0.961,2.702,1.492,4.526,0.858
		c1.824-0.634,2.043-2.195,2.497-2.66c0.453-0.469,0.678-0.694,1.078-0.915c0.399-0.221,1.596-0.705,2.229-2.536
		c0.632-1.831-0.575-3.56-0.575-3.56s-0.774-1.35-2.278-1.592c-1.507-0.245-1.669,0.114-2.687-0.104
		c-1.017-0.218-2.617-1.173-4.19-2.646C101.865,193.282,100.508,195.541,96.459,196.35z"/>
	
		<path fill="none" stroke="#879CAF" stroke-width="0.9867" stroke-linecap="round" stroke-linejoin="round" stroke-miterlimit="10" d="
		M91.098,199.54c0-0.342,0-0.682,0-1.022 M88.63,198.517c0,0.341,0,0.681,0,1.022 M86.162,199.54c0-0.342,0-0.682,0-1.022
		 M83.693,198.517c0,0.341,0,0.681,0,1.022"/>
	
		<path fill="none" stroke="#001C40" stroke-width="0.9867" stroke-linecap="round" stroke-linejoin="round" stroke-miterlimit="10" d="
		M91.098,199.881c0,0.371,0,0.738,0,1.107 M88.63,199.881c0,0.371,0,0.738,0,1.107 M86.162,199.881c0,0.371,0,0.738,0,1.107
		 M83.693,200.989c0-0.369,0-0.736,0-1.107"/>
</g>
<path fill="#879CAF" d="M141.472,224.371l22.091,14.85c0,0-4.695-6.6-9.277-23.1"/>
</svg>
