<?xml version="1.0" encoding="utf-8"?>
<!-- Generator: Adobe Illustrator 16.0.0, SVG Export Plug-In . SVG Version: 6.00 Build 0)  -->
<!DOCTYPE svg PUBLIC "-//W3C//DTD SVG 1.1//EN" "http://www.w3.org/Graphics/SVG/1.1/DTD/svg11.dtd">
<svg version="1.1" id="Layer_1" xmlns="http://www.w3.org/2000/svg" xmlns:xlink="http://www.w3.org/1999/xlink" x="0px" y="0px"
	 width="790px" height="719px" viewBox="0 0 790 719" style="enable-background:new 0 0 790 719;" xml:space="preserve">
<style type="text/css">
<![CDATA[
	.st0{fill:#4690EE;}
	.st1{fill:#AF8E7F;}
	.st2{fill:#E0B89D;}
	.st3{fill:#4C4338;}
	.st4{fill:#879CAF;}
	.st5{fill:none;stroke:#AD6659;stroke-width:1.206;stroke-linecap:round;stroke-linejoin:round;stroke-miterlimit:10;}
	.st6{fill:#8F0000;}
	.st7{fill:#235BCC;}
	.st8{opacity:0.2;enable-background:new    ;}
	.st9{fill:#F6AB91;stroke:#AD6659;stroke-miterlimit:10;}
	.st10{fill:none;stroke:#331702;stroke-width:1.2063;stroke-linecap:round;stroke-linejoin:round;stroke-miterlimit:10;}
	.st11{fill:#303539;}
	.st12{fill:#331702;}
	.st13{fill:#001C40;}
	.st14{fill:#3A2B21;}
	.st15{fill:#A20024;}
	.st16{fill:#773F19;}
	.st17{fill:#44725E;}
]]>
</style>
<path class="st13" d="M713.865,382.743c78.416,159.765-150.928,272.069-320.91,322.245C234.739,751.69-0.011,564.669,72.044,382.743
	C137.58,217.278,280.103,197.16,392.955,60.499C471.188-34.24,633.806,219.628,713.865,382.743z"/>
<polygon class="st7" points="282.254,404.825 345.035,537.923 343.263,545.921 336.989,549.685 319.34,560.288 307.253,567.55 
	268.921,498.447 268.921,461.116 272.245,406.01 "/>
<path class="st12" d="M432.143,164.702c0,0-3.539,11.062-5.595,13.767c-2.056,2.706-2.323-13.583-2.323-13.583
	S429.698,159.629,432.143,164.702z"/>
<path class="st9" d="M423.641,143.679c1.896,7.974-0.482,10.398-0.482,10.398s-0.373,0.012-0.435,7.503
	c-0.023,1.955,5.525,1.761,5.537-1.713c0.023-3.486,0.098-4.488,0.098-4.488s0.565-2.208,1.762-2.497
	c1.206-0.277,3.8-1.224,4.522-0.35c4.807,5.808,1.734,9.961-0.488,11.369c0,0-1.077,0.894-1.384,0.983
	c-4.586,1.335-3.447-0.458-4.122,2.981c-0.678,3.438-2.101,10.604-2.101,10.604l-2.323,22.245l-18.387,3.689l-0.789,8.784
	l-5.632-0.012l-0.699-10.121l-6.948-0.82l-0.157,0.699l-0.133-0.024c0,0,1.508-7.6,0.133-7.998
	c-17.094-4.885-14.911-21.063-14.911-21.063s0.604-13.041,0.712-17.045c0.157-6.032,0.146-21.907,0.146-21.907h32.511
	C410.069,134.896,421.746,135.692,423.641,143.679z"/>
<path class="st2" d="M477.142,206.01c5.02,2.05,19.592,5.416,20.678,30.581c1.072,25.164,2.052,57.023,2.052,57.023
	s-0.967,24.609-3.306,54.455l-96.172,0.072l41.74-0.156c0,0,0.481-11.46,3.017-24.309c2.532-12.835,10.156-61.921,9.253-76.217
	c-0.905-14.307-2.376-34.755-22.921-36.226l-1.895-3.342c0.796-0.253,1.616-0.411,2.461-0.471
	C432.049,207.421,466.599,201.703,477.142,206.01z"/>
<path class="st1" d="M495.273,363.486l33.089-0.072l0.013,0.096l-33.114,0.024C495.261,363.51,495.261,363.498,495.273,363.486z"/>
<path class="st1" d="M495.261,363.534l-14.114,0.012l-0.012-0.036l14.14-0.022C495.261,363.498,495.261,363.51,495.261,363.534z"/>
<path class="st11" d="M434.361,151.631c0,0-3.036,1.901-4.242,2.187c-1.195,0.297-0.938,2.29-0.938,2.29s-0.147,1.392-0.172,4.973
	c-0.012,3.568-7.249,3.545-7.225,1.538c0.061-7.694,0.344-8.149,0.344-8.149s3.406-1.916,1.512-10.105
	c-1.895-8.203-13.57-9.021-13.57-9.021h-32.511c-12.016-3.767-15.937-17.879-9.675-12.478c4.874,4.201,12.039,0.568,12.039,0.568
	s8.07-6.999,23.994-4.421C442.7,125.306,430.718,141.607,434.361,151.631z"/>
<path class="st3" d="M336.989,549.685l4.21,5.514l-6.297,28.325c-5.562,4.149-11.666,8.468-17.444,12.123
	c-3.715,2.353-9.457-2.159-4.584-7.938c4.874-5.778,12.269-13.849,12.269-13.849l-5.802-13.571L336.989,549.685z"/>
<path class="st16" d="M403.072,154.606c0-1.167,0.943-2.129,2.11-2.129c1.166,0,2.111,0.961,2.111,2.129
	c0,1.184-0.945,2.145-2.111,2.145S403.072,155.79,403.072,154.606z"/>
<path class="st2" d="M481.146,352.689l8.976,44.066c-2.642,17.457-2.001,28.779-8.976,33.487c-6.877,4.642-13.33,4.403-13.33,4.403
	l-17.216,0.713l-25.309,0.628l-17.188,0.818l-24.152,0.846l-19.734,0.688c0,0-16.662,0.761-30.873-0.761
	c-3.755-0.402-11.645-10.782,3.983-14.574c23.938-5.81,61.957,1.195,61.957,1.195s-0.097-3.112-0.192-8.602
	c41.101,4.995,38.712-61.739,38.712-61.739l-38.604-0.013c0-0.361,0.012-0.712,0.022-1.074L481.146,352.689z"/>
<path class="st15" d="M399.188,365.234l17.372,0.192c-2.484,1.508-9.951,2.474-17.433,3.088
	C399.141,367.431,399.164,366.333,399.188,365.234z"/>
<g>
	<path class="st1" d="M530.089,363.97c-0.278-3.342-3.25-6.073-6.604-6.071l-20.919,0.016c-3.354,0.002-8.843,0.007-12.195,0.009
		l-1.919,0.002c-3.354,0.002-5.563,2.696-4.906,5.985l6.593,33.087c0.655,3.288,1.729,8.67,2.385,11.959l40.838,204.766
		c0.654,3.289,3.937,5.979,7.29,5.979h4.633c3.354,0,5.87-2.734,5.592-6.076L530.089,363.97z"/>
</g>
<path class="st15" d="M364.667,285.359c0,9.021-17.737,23.036-26.859,28.205c-6.121,3.468-19.585,10.465-26.763,12.695
	c-14.29,4.441-41.381,10.418-65.967,7.647l-8.891-23.298l38.484-5.947c0,0,37.313-2.059,59.237-29.086
	c21.924-27.027,37.559-47.971,37.559-47.971c9.167-12.51,17.878-14.307,17.878-14.307l2.268-10.363l0.157-0.699l6.948,0.82
	l0.699,10.121l4.5,0.012l1.412-9.88l19.433-3.92l4.826,8.505l1.895,3.342c20.545,1.471,22.016,21.919,22.921,36.226
	c0.903,14.295-6.721,63.381-9.253,76.217c-2.534,12.848-3.017,27.929-3.017,27.929l-41.74,0.156h-0.734l-50.774-2.377
	c9.276-12.015,17.732-77.701,17.732-77.701"/>
<path class="st16" d="M383.506,152.332c1.169,0,2.112,0.961,2.112,2.146c0,1.167-0.943,2.129-2.112,2.129
	c-1.166,0-2.109-0.961-2.109-2.129C381.396,153.293,382.34,152.332,383.506,152.332z"/>
<path class="st1" d="M348.884,348.178l50.774-0.037l-50.896,0.193C348.799,348.286,348.848,348.226,348.884,348.178z"/>
<path class="st8" d="M355.77,420.434c0,0,33.305,11.792,52.333,9.223c19.029-2.569-18.599-14.461-18.599-14.461L355.77,420.434z"/>
<g id="XMLID_39_">
	<polygon class="st14" points="475.332,513.856 478.649,525.1 477.033,525.135 473.824,514.229 473.716,513.88 	"/>
	<polygon class="st14" points="360.126,515.726 359.838,516.679 357.135,527.513 355.013,527.548 358.715,515.751 	"/>
	<polygon class="st14" points="467.816,434.647 505.575,605.43 500.955,606.383 477.033,525.135 478.649,525.1 475.332,513.856 
		473.716,513.88 470.507,502.987 450.602,435.359 	"/>
	<polygon class="st14" points="473.824,514.229 477.033,525.135 423.025,526.185 420.517,613.874 413.845,614.091 410.793,526.451 
		357.135,527.513 359.838,516.679 360.126,515.726 410.395,514.918 423.351,514.689 473.716,513.88 	"/>
	<polygon class="st14" points="425.293,435.987 423.351,514.689 410.395,514.918 408.104,436.807 	"/>
	<polygon class="st14" points="383.951,437.651 360.126,515.726 358.715,515.751 355.013,527.548 357.135,527.513 345.144,575.656 
		334.902,583.521 343.263,535.052 345.035,527.054 364.217,438.34 	"/>
	<path class="st14" d="M334.902,583.521c3.739-2.773,7.25-5.477,10.241-7.865l-11.653,38.206l-5.332,0.022L334.902,583.521z"/>
</g>
<path class="st8" d="M275.188,411.775c0,0,0.466,75.403-2.9,92.74c-3.367,17.336-30.031-60.583-30.031-60.583l5.037-28.441
	L275.188,411.775z"/>
<path class="st7" d="M437.8,364.721l-38.6-0.021l-176.67-0.04c-16.39,16,3.98,224.64,3.98,224.64l20.38-2l20.58-2.03l7.69-0.76
	c-2.93-56-3.37-95.519-2.91-122.479c0.62-36.84,2.94-50.25,2.94-50.25l2.11-0.96c0,0,83.431,9.67,120.432,15.46
	c0.46,0.068,0.92,0.129,1.358,0.188C440.191,431.46,437.8,364.721,437.8,364.721z M318.74,371.59l14.029-6.16l19.601-0.709h0.001
	l-19.601,0.709L318.74,371.59c0.001,0-4.168,2.821,0.296,2.893C314.571,374.412,318.74,371.59,318.74,371.59z M332.43,374.92
	l-11.496,2.7l0,0L332.43,374.92c4.67-1.746,4.735-3.184,1.769-2.985C337.167,371.736,337.103,373.173,332.43,374.92z
	 M325.539,384.93c14.342-4.836,14.694-5.763,9.986-5.045C340.235,379.166,339.884,380.092,325.539,384.93
	c0.001,0-2.828,3.264,0.811,3.248C322.709,388.194,325.539,384.93,325.539,384.93z M332.768,390.25
	c8.704-4.661,10.786-6.652,9.499-6.736C343.556,383.597,341.475,385.588,332.768,390.25c0.001,0-3.134,4.938,6.764,0.528
	C329.633,395.188,332.768,390.25,332.768,390.25z M399.128,368.52c-6.551,0.527-13.088,0.791-16.306,0.898
	C386.04,369.311,392.578,369.047,399.128,368.52c2.842-0.235,5.679-0.521,8.242-0.865C404.806,368,401.969,368.284,399.128,368.52z"
	/>
<path class="st0" d="M165.134,348.334l139.236-0.121c-0.145,0.084-0.241,0.121-0.241,0.121H165.134z"/>
<g>
	<path class="st0" d="M309.591,345.194c-2.872,1.661-7.936,3.021-11.253,3.023l-127.172,0.11c-3.317,0.003-6.948-2.549-8.068-5.672
		L133.9,261.267c-1.12-3.123,0.678-5.677,3.995-5.677h76.554c3.317,0,6.845,2.589,7.839,5.754l12.092,38.506
		c0.994,3.165,2.62,8.344,3.613,11.51l5.267,16.79c0.993,3.165,1.809,5.755,1.812,5.755c0.003,0,0.593,1.87,1.309,4.155
		c0.717,2.286,4.016,4.261,7.331,4.388c0,0,9.993,0.384,33.034,0.637C312.777,343.352,309.591,345.194,309.591,345.194z"/>
</g>
<path class="st3" d="M270.182,606.213c0,0,1.158,4.646-4.765,5.587c-9.397,1.482-24.706,3.497-37.771,4.04
	c-4.378,0.182-7.105-6.598,0-9.167c7.118-2.571,17.553-5.863,17.553-5.863l1.689-13.512l20.58-2.026L270.182,606.213z"/>
<polygon class="st1" points="92.524,363.414 139.765,363.51 139.692,363.871 92.488,363.908 "/>
<g>
	<path class="st1" d="M133.595,358.268c3.354-0.003,5.561,2.687,4.905,5.975L88.747,613.722c-0.656,3.289-3.936,5.979-7.29,5.979
		h-4.633c-3.354,0-5.87-2.734-5.592-6.076l20.75-249.248c0.278-3.342,3.25-6.078,6.604-6.081L133.595,358.268z"/>
</g>
<g>
	<path class="st6" d="M403.568,184.267c-0.087,0-0.175-0.023-0.252-0.069c-4.549-2.704-13.107-3.414-13.193-3.42
		c-0.209-0.017-0.385-0.164-0.438-0.367c-0.054-0.203,0.027-0.417,0.201-0.535c2.096-1.415,4.128-2.131,6.041-2.131
		c5.421,0,7.986,5.588,8.093,5.827c0.089,0.196,0.038,0.427-0.123,0.57C403.804,184.224,403.688,184.267,403.568,184.267z"/>
	<path class="st6" d="M395.927,178.238c5.163,0,7.643,5.535,7.643,5.535c-4.702-2.795-13.406-3.488-13.406-3.488
		C392.361,178.801,394.28,178.238,395.927,178.238 M395.927,177.25c-2.013,0-4.139,0.746-6.317,2.216
		c-0.348,0.235-0.509,0.664-0.403,1.07c0.107,0.406,0.458,0.7,0.877,0.734c0.085,0.007,8.533,0.708,12.98,3.352
		c0.155,0.093,0.33,0.139,0.505,0.139c0.235,0,0.472-0.085,0.656-0.25c0.321-0.287,0.422-0.749,0.244-1.142
		C404.358,183.119,401.664,177.25,395.927,177.25L395.927,177.25z"/>
</g>
<polyline class="st8" points="529.355,366.536 530.824,372.327 486.222,375.041 484.525,366.536 "/>
<path class="st8" d="M476.683,230.053c0,0,13.881,13.351,10.667,59.261c-3.214,45.91-7.313,96.057-7.313,96.057
	s-4.061,38.547-12.22,49.276l8.865-55.136c0,0,9.738-94.273,7.386-114.222C481.713,245.341,476.683,230.053,476.683,230.053z"/>
<path class="st5" d="M392.299,155.597l-3.099,10.447c0,0-0.965,2.81,0.687,2.834c3.004,0.036,2.907,0.76,2.907,0.76"/>
<path class="st5" d="M431.354,156.116c0,0,7.024-0.519,0.788,6.378"/>
<polyline class="st8" points="92.488,366.536 91.019,372.327 139.455,375.428 142.408,365.234 "/>
<g id="XMLID_37_">
	<g>
		<g>
			<path class="st1" d="M558.751,348.016c3.317-0.004,6.031,2.707,6.031,6.024v9.48c0,3.318-2.714,6.035-6.031,6.04l-24.345,0.032
				c-3.317,0.005-6.034-0.021-6.037-0.059c-0.004-0.036-2.721-0.06-6.038-0.049l-21.026,0.063c-3.316,0.01-8.745,0.023-12.063,0.033
				l-2.076,0.004c-3.317,0.01-6.028,0.027-6.025,0.04c0.003,0.014-2.708,0.028-6.024,0.033l-69.86,0.103
				c-3.316,0.006-8.745,0.014-12.063,0.019l-247.468,0.32c-3.317,0.006-6.016-0.105-5.996-0.244c0.02-0.141-2.678-0.263-5.996-0.271
				l-35.177-0.099c-3.317-0.011-6.04,0.138-6.05,0.325c-0.01,0.189-2.732,0.349-6.05,0.353l-25.417,0.033
				c-3.317,0.004-6.032-2.707-6.032-6.023v-9.567c0-3.316,2.714-6.034,6.032-6.037l98.063-0.098
				c3.317-0.003,8.746-0.006,12.063-0.006h126.932c3.317,0,6.053-0.014,6.08-0.03c0.026-0.016,2.907-0.143,6.225-0.146l32.451-0.043
				c3.317-0.005,6.012,0.026,5.989,0.07c-0.023,0.043,2.635,0.136,5.952,0.117l38.833-0.212c3.317-0.018,6.196-0.033,6.398-0.033
				c0.203,0,3.082-0.003,6.398-0.006l84.108-0.085c3.316-0.003,8.745-0.009,12.063-0.013L558.751,348.016z"/>
		</g>
	</g>
</g>
<path class="st8" d="M378.194,336.107l-15.171,11.072l-1.021-0.477l10.027-11.431c0,0,24.726-72.302,29.172-122.084l1.778-0.007
	c0,0-5.311,58.255-26.906,119.191h1.748"/>
<path class="st8" d="M366.213,260.968c-0.117-0.466,1.607,1.061,1.607,1.061s-1.369,29.065-5.186,34.289
	C362.635,296.318,368.006,268.091,366.213,260.968z"/>
<path class="st8" d="M389.345,213.296l10.072-0.121c0,0,0.176-10.018-0.699-10.121c-6.948-0.82-6.948-0.82-6.948-0.82
	L389.345,213.296z"/>
<polygon class="st8" points="431.481,211.234 403.917,213.188 405.329,203.308 424.762,199.387 "/>
<path class="st8" d="M399.133,204.2c0.299,3.386,0.284,8.976,0.284,8.976l0,0l-0.699-10.121
	C399.178,203.413,399.106,203.897,399.133,204.2z"/>
<ellipse class="st17" cx="395.784" cy="208.569" rx="1.618" ry="2.021"/>
<path class="st10" d="M379.993,149.204c0,0,3.159-0.862,6.463,2.427"/>
<path class="st10" d="M401.776,150.285c0,0,3.126,0.975,6.545-2.195"/>
<g>
	<g>
		<path class="st4" d="M441.606,89.794c0,2.75,2.25,5,5,5h124.271c2.75,0,5-2.25,5-5V16.963c0-2.75-2.25-5-5-5H446.606
			c-2.75,0-5,2.25-5,5V89.794z"/>
	</g>
	<path class="st4" d="M454.421,94.795l-22.091,14.85c0,0,4.694-6.6,9.276-23.101"/>
</g>
<g>
	<g id="XMLID_41_">
		<path class="st9" d="M400.128,201.529c0.74,2.77,0.05,5.98,0,6.2l-0.01-0.01c-0.82-1.91-2.08-3.979-4.07-5.97l-1.59-2.2
			l-0.06-0.08c0,0-0.011-0.01-0.021-0.03c-0.14-0.22-0.939-1.65,0.57-3.63c1.649-2.16,5.069-2.64,5.18-1.54
			S399.358,198.669,400.128,201.529z"/>
		<path class="st9" d="M400.118,207.72l-5.66-8.17l1.59,2.2C398.038,203.74,399.298,205.81,400.118,207.72z"/>
		<path class="st9" d="M388.998,201.49c-0.21-0.19-2.93-2.69-4.62-5.02c-1.76-2.42-5.39-3.15-7.05-4.41c-1.05-0.8-3.96-5.46,0-5.28
			c7.38,0.32,10.58,3.74,10.58,3.74l6.47,8.92c0.01,0.02,0.021,0.03,0.021,0.03l0.06,0.08l5.66,8.17l0.01,0.01c0,0.01,0,0.01,0,0.01
			c1.34,3.18,1.43,5.91,1.43,7.01c0,1.76,1.102,10.13,2.2,12.77c0.521,1.26,1.3,3.96,2.08,6.83l-18.02,7.5
			c-0.03-1.01,0.931-1.83,0.871-2.44c-0.45-4.18-9.371-9.25-10.911-11.01c-1.55-1.76-4.41-10.35-4.19-11.45
			c0.22-1.1-0.88-5.73-1.54-3.08c-0.66,2.64-2.569,0.43-2.859-0.22c-0.671-1.46-1.15-5.73,1.76-6.17c5.3-0.8,10.35,3.74,9.25,2.39
			c-1.101-1.36-7.71-2.83-7.71-2.83s-0.141-2.45,1.62-3.74c3.46-2.56,8.729,3.08,7.409,1.32c-1.319-1.76-6.17-2.9-6.17-2.9
			s-0.89-1.08,0.881-3.05c2.02-2.24,3.01-2.04,5.289-1.54C383.838,197.64,388.688,201.259,388.998,201.49z"/>
		<path class="st15" d="M454.43,249.079l-7.05,51.98c-5.5,14.53-15.35,16.52-22.24,16.29c-5.68-0.189-15.188-2.64-20.26-10.35
			c-5.06-7.71-9.689-29.95-12.55-40.3l22.46-13.76l5.729,9.36l4.62-18.72L454.43,249.079z"/>
		<path class="st15" d="M414.75,252.838l0.04,0.1l-22.46,13.76c-2.45-8.85-2.33-20.92-2.51-26.85l18.02-7.5l0.021,0.06
			c0.858,3.14,1.729,6.47,2.31,8.31C411.2,244.019,414.36,251.869,414.75,252.838z"/>
		<path class="st15" d="M407.86,232.409l6.89,20.43c-0.39-0.97-3.55-8.82-4.58-12.12C409.59,238.878,408.72,235.548,407.86,232.409z
			"/>
		<path class="st15" d="M392.33,266.699l-7.71-24.69l5.2-2.16C390,245.778,389.88,257.849,392.33,266.699z"/>
	</g>
</g>
<path class="st8" d="M393.43,270.876c0,0,7.553,30.758,10.779,35.002s17.86,11.176,17.86,11.176
	c-3.918,0.313-15.262-6.162-18.521-10.698C400.288,301.82,393.43,270.876,393.43,270.876z"/>
<path class="st8" d="M454.43,254.856l-2.817,6.024c-0.292,2.99-2.823,41.083-2.823,41.083c-2.785,8.333-7.552,9.513-7.552,9.513
	c-12.993,9.49-19.167,5.579-19.167,5.579l4.446,0.8c0,0,20.815-9.503,22.271-15.891C450.244,295.575,455.326,257.894,454.43,254.856
	z"/>
<path class="st8" d="M415.857,255.973c0,0,1.619,1.887,3.036,5.544c1.417,3.657,2.072,3.775,2.072,4.955
	c0,1.18-1.446-11.026,1.391-11.616l-1.606,7.724L415.857,255.973z"/>
<path class="st8" d="M384.62,242.008l7.28,22.996C391.9,265.004,387.669,255.783,384.62,242.008z"/>
<path class="st8" d="M407.86,232.409l8.605,24.388C416.467,256.796,411.823,241.474,407.86,232.409z"/>
<path class="st8" d="M403.917,223.344"/>
<path class="st8" d="M384.62,242.008l23.24-9.6C407.86,232.409,393.292,237.247,384.62,242.008z"/>
<path class="st8" d="M425.14,243.579l-2.782,11.277C422.356,254.856,425.368,245.875,425.14,243.579z"/>
<g>
	<circle class="st13" cx="469.806" cy="54.8" r="9.378"/>
	<circle class="st13" cx="495.341" cy="54.8" r="9.378"/>
	<circle class="st13" cx="520.877" cy="54.8" r="9.379"/>
	<circle class="st13" cx="546.414" cy="54.8" r="9.379"/>
</g>
</svg>
