<?xml version="1.0" encoding="utf-8"?>
<!-- Generator: Adobe Illustrator 16.0.0, SVG Export Plug-In . SVG Version: 6.00 Build 0)  -->
<!DOCTYPE svg PUBLIC "-//W3C//DTD SVG 1.1//EN" "http://www.w3.org/Graphics/SVG/1.1/DTD/svg11.dtd">
<svg version="1.1" id="Layer_1" xmlns="http://www.w3.org/2000/svg" xmlns:xlink="http://www.w3.org/1999/xlink" x="0px" y="0px"
	 width="790px" height="719px" viewBox="0 0 790 719" style="enable-background:new 0 0 790 719;" xml:space="preserve">
<style type="text/css">
<![CDATA[
	.st0{fill:#4690EE;}
	.st1{fill:#7A5426;}
	.st2{fill:#AF8E7F;}
	.st3{fill:#E0B89D;}
	.st4{fill:#4C4338;}
	.st5{fill:#F6AB91;stroke:#AD6659;stroke-width:1.5294;stroke-miterlimit:10;}
	.st6{fill:none;stroke:#AD6659;stroke-width:1.206;stroke-linecap:round;stroke-linejoin:round;stroke-miterlimit:10;}
	.st7{fill:#8F0000;}
	.st8{fill:#235BCC;}
	.st9{opacity:0.2;enable-background:new    ;}
	.st10{fill:#F6AB91;stroke:#AD6659;stroke-miterlimit:10;}
	.st11{fill:#261103;}
	.st12{fill:none;stroke:#331702;stroke-width:1.2063;stroke-linecap:round;stroke-linejoin:round;stroke-miterlimit:10;}
	.st13{opacity:0.2;}
	.st14{fill:#331702;}
	.st15{fill:#001C40;}
	.st16{fill:#3A2B21;}
	.st17{fill:#773F19;}
	.st18{fill:#44725E;}
]]>
</style>
<path class="st15" d="M712.869,382.737c78.416,159.765-150.928,272.069-320.91,322.245
	C233.747,751.685-1.002,564.663,71.052,382.737c65.537-165.466,208.059-185.584,320.907-322.245
	C470.191-34.246,632.809,219.622,712.869,382.737z"/>
<polygon class="st5" points="454.754,180.75 414.459,184.263 420.174,196.622 454.754,192.136 "/>
<polygon class="st5" points="358.432,177.749 398.727,181.262 393.012,193.621 358.432,189.134 "/>
<g>
	<path class="st1" d="M368.513,175.034c0.069-0.546-0.298-1.145-0.814-1.331c0,0-21.201-7.639-34.693-9.399
		c-13.494-1.761-17.808,2.154-25.522,10.12c-8.288,8.559,7.708,32.215,7.708,32.215c0.309,0.456,0.826,1.192,1.151,1.636
		l41.727,57.056c0.324,0.444,0.855,0.444,1.181,0c0,0,15.997-21.827,24.21-15.666c8.216,6.162,2.53-29.139,2.53-29.139
		c-0.088-0.543-0.562-1.189-1.053-1.436c0,0-40.842-20.521-46.708-25.215l26.547,2.73c0.548,0.057,1.052-0.344,1.121-0.89
		L368.513,175.034z"/>
</g>
<polygon class="st8" points="281.262,404.819 344.042,537.917 342.269,545.915 335.996,549.679 318.348,560.282 306.261,567.544 
	267.93,498.441 267.93,461.11 271.254,406.004 "/>
<path class="st14" d="M431.146,164.696c0,0-3.539,11.062-5.596,13.767c-2.055,2.706-2.322-13.583-2.322-13.583
	S428.701,159.623,431.146,164.696z"/>
<g id="XMLID_43_">
	<g id="XMLID_46_">
		<path class="st3" d="M495.819,236.58c1.069,25.17,2.05,57.03,2.05,57.03s-0.96,24.61-3.3,54.45l-96.17,0.07l41.739-0.15
			c0,0,0.48-11.46,3.011-24.31c2.54-12.84,10.159-61.92,9.26-76.22c-0.91-14.3-2.38-34.75-22.92-36.22l-1.9-3.35
			c0.8-0.25,1.62-0.41,2.46-0.47c0,0.01,34.55-5.71,45.09-1.41C480.169,208.05,494.739,211.42,495.819,236.58z"/>
	</g>
</g>
<path class="st9" d="M475.686,230.047c0,0,13.881,13.351,10.668,59.261c-3.215,45.91-7.313,96.057-7.313,96.057
	s-4.06,38.547-12.219,49.275l8.864-55.135c0,0,9.738-94.273,7.386-114.223C480.718,245.333,475.686,230.047,475.686,230.047z"/>
<g>
	<path class="st1" d="M433.556,180.346c-0.08-0.544,0.279-1.136,0.799-1.315c0,0,37.594-12.967,51.086-14.727
		c13.494-1.761,17.808,2.154,25.522,10.12c8.288,8.559-7.708,32.215-7.708,32.215c-0.309,0.456-0.867,1.158-1.241,1.561
		l-53.198,57.206c-0.374,0.403-0.776,0.293-0.894-0.245c0,0-4.723-21.657-12.936-15.495c-8.216,6.162-11.654-26.921-11.654-26.921
		c-0.057-0.547,0.307-1.181,0.808-1.408c0,0,50.211-22.766,56.077-27.46l-42.985,4.42c-0.548,0.057-1.062-0.343-1.142-0.887
		L433.556,180.346z"/>
</g>
<path class="st10" d="M391.236,203.048c0,0,0.799-7.738-0.576-8.136c-17.095-4.885-14.911-21.063-14.911-21.063
	s0.604-13.041,0.712-17.045c0.157-6.032,0.146-21.907,0.146-21.907h32.512c0,0,11.677,0.796,13.57,8.782
	c1.896,7.974-0.482,10.398-0.482,10.398s-0.373,0.012-0.435,7.503c-0.023,1.955,5.525,1.761,5.537-1.713
	c0.023-3.486,0.098-4.488,0.098-4.488s0.565-2.208,1.762-2.497c1.206-0.277,3.8-1.224,4.522-0.35
	c4.807,5.808,1.734,9.961-0.488,11.369c0,0-1.077,0.894-1.384,0.983c-4.586,1.335-3.447-0.458-4.122,2.981
	c-0.678,3.438-2.101,10.604-2.101,10.604l-2.323,22.245l-18.387,3.689l-0.789,8.784l-5.632-0.012l-0.699-10.121l-6.653-0.315"/>
<path class="st11" d="M433.409,151.631c0,0-3.036,1.901-4.242,2.187c-1.195,0.297-0.938,2.29-0.938,2.29s-0.147,1.392-0.172,4.973
	c-0.012,3.568-7.249,3.545-7.225,1.538c0.061-7.694,0.344-8.149,0.344-8.149s3.406-1.916,1.512-10.105
	c-1.895-8.203-13.57-9.021-13.57-9.021h-32.511c-12.015-3.767-15.936-17.879-9.674-12.478c4.874,4.201,12.038,0.568,12.038,0.568
	s8.07-6.999,23.994-4.421C441.748,125.307,429.766,141.607,433.409,151.631z"/>
<path class="st2" d="M494.277,363.48l33.088-0.072l0.014,0.096l-33.115,0.024C494.264,363.503,494.264,363.492,494.277,363.48z"/>
<path class="st2" d="M494.264,363.528l-14.113,0.012l-0.012-0.036l14.139-0.022C494.264,363.492,494.264,363.503,494.264,363.528z"
	/>
<path class="st4" d="M335.996,549.679l4.21,5.514l-6.297,28.324c-5.562,4.15-11.666,8.469-17.443,12.123
	c-3.715,2.354-9.456-2.158-4.583-7.938c4.873-5.778,12.268-13.849,12.268-13.849l-5.802-13.571L335.996,549.679z"/>
<path class="st17" d="M402.076,154.052c0-0.452,0.942-0.825,2.11-0.825c1.166,0,2.111,0.372,2.111,0.825
	c0,0.458-0.945,0.831-2.111,0.831C403.02,154.882,402.076,154.51,402.076,154.052z"/>
<path class="st3" d="M480.15,352.683l8.976,44.067c-2.642,17.457-2,28.779-8.976,33.487c-6.877,4.642-13.329,4.403-13.329,4.403
	l-17.216,0.712l-25.309,0.629l-17.189,0.818l-24.151,0.845l-19.733,0.688c0,0-16.661,0.761-30.871-0.761
	c-3.755-0.402-11.645-10.782,3.982-14.574c23.937-5.811,61.954,1.195,61.954,1.195s-0.097-3.112-0.191-8.602
	c41.101,4.995,38.711-61.741,38.711-61.741l-38.604-0.012c0-0.362,0.012-0.712,0.022-1.074L480.15,352.683z"/>
<path class="st1" d="M398.191,365.228l17.371,0.193c-2.483,1.508-9.95,2.473-17.432,3.088
	C398.145,367.424,398.168,366.327,398.191,365.228z"/>
<g>
	<path class="st2" d="M529.092,363.963c-0.277-3.342-3.25-6.074-6.604-6.072l-20.918,0.017c-3.354,0.002-8.843,0.007-12.195,0.009
		l-1.92,0.002c-3.354,0.002-5.562,2.696-4.906,5.985l6.594,33.087c0.654,3.288,1.729,8.67,2.383,11.959l40.839,204.766
		c0.655,3.289,3.938,5.979,7.291,5.979h4.633c3.354,0,5.869-2.734,5.592-6.076L529.092,363.963z"/>
</g>
<path class="st1" d="M357.955,243.979L357.955,243.979c0,0,10.822-15.188,15.26-19.504c3.372-3.28,15.132-11.184,15.132-11.184l0,0
	l0,0l0,0l0,0l2.269-10.363l0.157-0.699l6.947,0.82l0.699,10.121l4.5,0.012l1.412-9.88l19.434-3.92l4.826,8.505l1.893,3.342
	c20.546,1.471,22.923,36.226,22.923,36.226s-4.271,54.498-9.255,76.217c-2.532,12.847-3.016,27.928-3.016,27.928l-41.74,0.157
	h-0.733l-55.239-2.26L357.955,243.979"/>
<path class="st1" d="M363.672,285.353"/>
<path class="st17" d="M382.51,153.171c1.168,0,2.111,0.372,2.111,0.831c0,0.453-0.943,0.825-2.111,0.825
	c-1.166,0-2.109-0.372-2.109-0.825C380.4,153.543,381.344,153.171,382.51,153.171z"/>
<path class="st2" d="M347.89,348.171l50.772-0.037l-50.894,0.193C347.805,348.28,347.854,348.22,347.89,348.171z"/>
<path class="st9" d="M354.774,420.428c0,0,33.305,11.792,52.333,9.223c19.029-2.569-18.6-14.461-18.6-14.461L354.774,420.428z"/>
<g id="XMLID_42_">
	<polygon class="st16" points="474.336,513.851 477.652,525.094 476.037,525.129 472.828,514.224 472.719,513.874 	"/>
	<polygon class="st16" points="359.131,515.72 358.843,516.673 356.14,527.507 354.018,527.542 357.72,515.745 	"/>
	<polygon class="st16" points="466.82,434.642 504.578,605.424 499.959,606.377 476.037,525.129 477.652,525.094 474.336,513.851 
		472.719,513.874 469.51,502.981 449.605,435.354 	"/>
	<polygon class="st16" points="472.828,514.224 476.037,525.129 422.029,526.179 419.52,613.868 412.848,614.085 409.797,526.445 
		356.14,527.507 358.843,516.673 359.131,515.72 409.398,514.912 422.354,514.684 472.719,513.874 	"/>
	<polygon class="st16" points="424.297,435.981 422.354,514.684 409.398,514.912 407.107,436.801 	"/>
	<polygon class="st16" points="382.955,437.646 359.131,515.72 357.72,515.745 354.018,527.542 356.14,527.507 344.149,575.65 
		333.909,583.517 342.269,535.046 344.042,527.048 363.222,438.334 	"/>
	<path class="st16" d="M333.909,583.517c3.739-2.773,7.25-5.477,10.24-7.865l-11.652,38.206l-5.331,0.022L333.909,583.517z"/>
</g>
<path class="st9" d="M274.197,411.77c0,0,0.466,75.404-2.9,92.741c-3.367,17.336-30.031-60.583-30.031-60.583l5.037-28.441
	L274.197,411.77z"/>
<path class="st8" d="M436.81,364.71L398.2,364.7l-176.66-0.05c-16.39,16.01,3.98,224.64,3.98,224.64l20.38-2l20.57-2.03l7.7-0.76
	c-2.93-55.99-3.38-95.51-2.92-122.47c0.63-36.851,2.94-50.261,2.94-50.261l2.12-0.949c0,0,83.42,9.66,120.42,15.449
	c0.46,0.07,0.92,0.131,1.359,0.19C439.2,431.46,436.81,364.71,436.81,364.71z"/>
<path class="st0" d="M164.142,348.328l139.236-0.121c-0.146,0.084-0.241,0.121-0.241,0.121H164.142z"/>
<g>
	<path class="st0" d="M308.6,345.188c-2.872,1.661-7.936,3.021-11.253,3.024l-127.172,0.11c-3.317,0.003-6.948-2.549-8.068-5.672
		l-29.198-81.39c-1.12-3.123,0.678-5.677,3.995-5.677h76.554c3.317,0,6.845,2.589,7.839,5.754l12.092,38.506
		c0.994,3.165,2.62,8.344,3.613,11.51l5.267,16.79c0.993,3.165,1.809,5.756,1.812,5.756c0.003,0,0.593,1.869,1.309,4.155
		c0.717,2.286,4.016,4.261,7.331,4.388c0,0,9.993,0.384,33.034,0.637C311.785,343.346,308.6,345.188,308.6,345.188z"/>
</g>
<path class="st4" d="M269.191,606.207c0,0,1.158,4.646-4.765,5.587c-9.397,1.482-24.706,3.497-37.771,4.04
	c-4.378,0.182-7.105-6.598,0-9.167c7.118-2.571,17.553-5.863,17.553-5.863l1.689-13.512l20.58-2.026L269.191,606.207z"/>
<polygon class="st2" points="91.533,363.408 138.773,363.503 138.701,363.865 91.496,363.902 "/>
<g>
	<path class="st2" d="M132.603,358.262c3.354-0.003,5.561,2.687,4.905,5.975L87.755,613.716c-0.656,3.289-3.936,5.979-7.29,5.979
		h-4.633c-3.354,0-5.87-2.734-5.592-6.076L90.99,364.37c0.278-3.342,3.25-6.078,6.604-6.081L132.603,358.262z"/>
</g>
<g>
	<path class="st7" d="M403.521,180.156c0.109,0.185,0.088,0.421-0.057,0.58c-0.175,0.195-4.32,4.735-9.484,3.083
		c-1.821-0.583-3.54-1.885-5.104-3.872c-0.129-0.165-0.141-0.394-0.028-0.571c0.114-0.177,0.327-0.263,0.531-0.216
		c0.082,0.021,8.45,1.953,13.607,0.764c0.088-0.02,0.176-0.016,0.261,0.012C403.358,179.973,403.457,180.049,403.521,180.156z"/>
	<path class="st7" d="M394.131,183.35c-1.568-0.502-3.224-1.623-4.865-3.706c0,0,8.501,1.992,13.832,0.764
		C403.098,180.408,399.05,184.923,394.131,183.35 M393.83,184.29c5.465,1.749,9.818-3.019,10.002-3.224
		c0.29-0.319,0.335-0.79,0.115-1.162c-0.125-0.213-0.323-0.366-0.548-0.438c-0.166-0.053-0.348-0.063-0.524-0.022
		c-5.041,1.162-13.301-0.745-13.383-0.764c-0.411-0.095-0.835,0.077-1.059,0.432c-0.228,0.354-0.203,0.813,0.056,1.142
		C390.115,182.317,391.912,183.676,393.83,184.29L393.83,184.29z"/>
</g>
<polyline class="st9" points="528.359,366.53 529.828,372.321 485.225,375.035 483.529,366.53 "/>
<path class="st6" d="M391.303,155.591l-3.1,10.447c0,0-0.965,2.81,0.688,2.834c3.004,0.036,2.906,0.76,2.906,0.76"/>
<path class="st6" d="M430.357,156.11c0,0,7.025-0.519,0.789,6.378"/>
<polyline class="st9" points="91.496,366.53 90.027,372.321 138.464,375.422 141.416,365.228 "/>
<g id="XMLID_36_">
	<g>
		<g>
			<path class="st2" d="M557.754,348.01c3.318-0.004,6.031,2.707,6.031,6.024v9.48c0,3.318-2.713,6.036-6.031,6.041l-24.344,0.032
				c-3.318,0.005-6.035-0.021-6.037-0.059c-0.004-0.036-2.721-0.06-6.039-0.049l-21.025,0.063c-3.317,0.01-8.746,0.023-12.063,0.033
				l-2.076,0.004c-3.318,0.01-6.029,0.027-6.025,0.04c0.002,0.014-2.709,0.028-6.024,0.033l-69.861,0.103
				c-3.316,0.006-8.744,0.013-12.063,0.019l-247.463,0.32c-3.317,0.005-6.016-0.105-5.996-0.245s-2.678-0.262-5.996-0.271
				l-35.177-0.099c-3.317-0.011-6.04,0.138-6.05,0.325c-0.01,0.189-2.732,0.349-6.05,0.353l-25.417,0.033
				c-3.317,0.004-6.032-2.708-6.032-6.024V354.6c0-3.316,2.714-6.034,6.032-6.038l98.063-0.097
				c3.317-0.003,8.746-0.006,12.063-0.006h126.932c3.317,0,6.053-0.014,6.08-0.03c0.026-0.016,2.907-0.143,6.225-0.146l32.45-0.043
				c3.316-0.005,6.011,0.026,5.988,0.069c-0.023,0.043,2.635,0.137,5.951,0.118l38.832-0.212c3.316-0.018,6.195-0.033,6.398-0.033
				c0.202,0,3.082-0.003,6.397-0.006l84.109-0.085c3.315-0.003,8.744-0.009,12.063-0.013L557.754,348.01z"/>
		</g>
	</g>
</g>
<path class="st9" d="M362.028,347.174l-1.021-0.477l10.026-11.432c0,0,24.726-72.302,29.171-122.083l1.778-0.007
	c0,0-5.311,58.255-26.905,119.191l0,0"/>
<path class="st9" d="M388.348,213.29l10.072-0.121c0,0,0.176-10.018-0.699-10.121c-6.947-0.82-6.947-0.82-6.947-0.82L388.348,213.29
	z"/>
<polygon class="st9" points="430.484,211.228 402.92,213.181 404.332,203.301 423.766,199.381 "/>
<path class="st9" d="M398.137,204.194c0.299,3.386,0.283,8.976,0.283,8.976l0,0l-0.699-10.121
	C398.182,203.406,398.109,203.891,398.137,204.194z"/>
<ellipse class="st18" cx="394.788" cy="208.563" rx="1.618" ry="2.021"/>
<path class="st12" d="M378.926,150.438c0,0,2.654-1.918,6.904,0"/>
<path class="st12" d="M400.736,151.012c0,0,2.653-1.918,6.901,0"/>
<polygon class="st13" points="338.229,193.876 328.089,190.006 333.968,190.869 331.083,185.685 338.229,193.876 "/>
<polygon class="st13" points="480.169,193.985 489.058,187.757 485.048,192.142 490.959,192.66 480.169,193.985 "/>
<path class="st13" d="M355.498,261.817c0,0,3.581-13.255,2.457-17.838S355.498,261.817,355.498,261.817z"/>
<path class="st13" d="M451.603,262.737c0,0-3.581-13.255-2.457-17.838S451.603,262.737,451.603,262.737z"/>
<g>
</g>
<g>
</g>
<g>
</g>
<g>
</g>
<g>
</g>
</svg>
