<?xml version="1.0" encoding="utf-8"?>
<!-- Generator: Adobe Illustrator 16.0.0, SVG Export Plug-In . SVG Version: 6.00 Build 0)  -->
<!DOCTYPE svg PUBLIC "-//W3C//DTD SVG 1.1//EN" "http://www.w3.org/Graphics/SVG/1.1/DTD/svg11.dtd">
<svg version="1.1" id="Layer_1" xmlns="http://www.w3.org/2000/svg" xmlns:xlink="http://www.w3.org/1999/xlink" x="0px" y="0px"
	 width="1302.247px" height="155px" viewBox="31.949 0 1302.247 155" enable-background="new 31.949 0 1302.247 155"
	 xml:space="preserve">
<g id="Layer_2" display="none">
	<rect x="495.5" y="278.583" display="inline" fill="#050418" width="375" height="210.834"/>
	
		<linearGradient id="SVGID_1_" gradientUnits="userSpaceOnUse" x1="-110.0869" y1="674.0645" x2="59.5" y2="674.0645" gradientTransform="matrix(1 0 0 1 811 -261)">
		<stop  offset="0" style="stop-color:#B34DF7"/>
		<stop  offset="1" style="stop-color:#69D5FF"/>
	</linearGradient>
	<path display="inline" opacity="0.1" fill="url(#SVGID_1_)" enable-background="new    " d="M700.913,489.417
		c0,0,10.766-57.646,65.553-68.974s63.612-29.168,63.612-29.168s15.646-28.145,23.539-41.866
		c7.388-12.851,16.883-12.696,16.883-12.696v152.704H700.913z"/>
	
		<linearGradient id="SVGID_2_" gradientUnits="userSpaceOnUse" x1="-55.7134" y1="621.7432" x2="-13.709" y2="621.7432" gradientTransform="matrix(1 0 0 1 811 -261)">
		<stop  offset="0" style="stop-color:#B34DF7"/>
		<stop  offset="1" style="stop-color:#69D5FF"/>
	</linearGradient>
	<path display="inline" opacity="0.3" fill="url(#SVGID_2_)" enable-background="new    " d="M769.54,371.023l-0.693,27.355
		l0.693,1.454l0.63-1.454L769.54,371.023z M777.43,377.777l-0.689,2.584l0.689,26.229l0.631-26.456L777.43,377.777z
		 M785.932,368.979l-0.69,27.357l0.69,1.458l0.629-1.458L785.932,368.979z M793.778,339.29h0.003c0-0.003,0-0.009,0.003-0.015
		C793.781,339.281,793.781,339.284,793.778,339.29z M793.771,339.32c0.002-0.012,0.005-0.021,0.007-0.03
		c-0.005,0.006-0.012,0.015-0.02,0.021L793.771,339.32z M789.442,331.813c0,0,0.003,0.006,0.006,0.013
		c0.008,0.009,0.027,0.032,0.027,0.032c0.056-0.029,0.104-0.063,0.107-0.063C789.587,331.792,789.515,331.805,789.442,331.813z
		 M760.362,328.271c0.063,0.023,0.13,0.054,0.193,0.074l0.009-0.003C760.498,328.32,760.429,328.297,760.362,328.271z
		 M783.896,326.54c0.002,0.015,0.011,0.051,0.021,0.089c0.003,0,0.003-0.003,0.005-0.003
		C783.911,326.593,783.9,326.559,783.896,326.54z M792.863,348.438l-0.026,0.039c0.021,0.01,0.043,0.012,0.063,0.019
		C792.888,348.477,792.877,348.456,792.863,348.438z M789.521,343.027c-0.218,0.104-0.429,0.209-0.642,0.313
		c0,0,0.023,0.033,0.026,0.033c0.211-0.103,0.425-0.206,0.635-0.31L789.521,343.027z M790.118,342.688
		c-0.072,0.049-0.146,0.098-0.217,0.146c0.077-0.042,0.151-0.081,0.229-0.122L790.118,342.688z M789.544,343.064
		c0.12-0.078,0.24-0.154,0.357-0.235c-0.128,0.063-0.258,0.134-0.383,0.198L789.544,343.064z M782.975,337.467
		c0.694,0.907,1.526,1.993,2.265,2.953C785.268,338.564,784.675,337.813,782.975,337.467z M760.567,328.346
		c1.413-0.623,2.827-1.238,4.036-1.771C763.235,326.037,761.125,326.85,760.567,328.346z M788.883,343.341
		c-0.006,0.009-0.011,0.021-0.017,0.029c0.014,0,0.027,0.003,0.043,0.003C788.906,343.374,788.883,343.341,788.883,343.341z
		 M787.666,344.225c-0.182,0.621-0.368,1.254-0.553,1.894c0.091,0.045,0.182,0.089,0.271,0.137c0.493-0.961,0.987-1.921,1.48-2.882
		c-0.621-0.042-1.243-0.086-1.867-0.127C787.22,343.563,787.438,343.885,787.666,344.225z M777.054,366.381
		c-0.184-0.845-0.233-0.074-0.256,0.049c-0.515,3.571-1.516,7.771-2.159,11.821c2.563-3.253,0,0,2.563-3.253l2.935,3.052
		C779.107,374.158,778.081,370.27,777.054,366.381z M766.771,357.75c0.943,3.081,3.283,4.5,5.636,5.85
		c0.179,4.738,0.354,9.432,0.532,14.121c0.135-0.003,0.268-0.009,0.396-0.012c0.277-4.967,0.553-9.934,0.822-14.775L766.771,357.75z
		 M793.763,339.311c-0.003,0.013-0.008,0.021-0.011,0.027c0.006-0.006,0.014-0.012,0.021-0.018L793.763,339.311z M793.752,339.337
		c-1.211,1.115-2.423,2.233-3.634,3.349l0.016,0.021c0.427,0.07,0.854,0.141,1.23,0.203c0.376,1.939-0.134,3.464-1.543,4.482
		c-1.646,1.194-3.361,2.274-5.018,3.471c-2.431,1.754-3.389,1.645-5.571-0.893c0.604-4.265,1.227-8.637,1.9-13.402
		c1.313-0.598,2.831-1.159,4.24-1.963c1.328-0.764,2.56-1.729,3.823-2.623c-2.572,1.188-5.144,2.361-7.511,3.457
		c-1.457-1.321-2.213-3.056-4.107-2.396c1.412,1.214,3.048,2.201,2.728,4.513c-0.404,2.938-0.886,5.867-1.436,8.779
		c-0.148,0.789-0.656,1.493-0.947,2.126c-2.799-0.514-3.752-1.729-3.535-4.369c0.225-2.735,0.721-5.463,0.786-8.206
		c0.063-2.308,1.005-3.854,2.58-5.017c2.013-1.483,4.1-2.832,6.153-4.241c-0.419,0.063-0.883,0.012-1.245,0.199
		c-2.042,1.041-4.057,2.143-6.104,3.232c-1.063-1.629-2.304-2.894-4.159-2.332c1.065,1.104,2.146,2.22,3.067,3.174
		c-0.604,4.029-1.16,7.732-1.73,11.537c-0.571,0.06-1.055,0.106-1.434,0.146c-1.671-1.761-2.469-3.78-2.396-6.142
		c0.064-2.188,0.275-4.373,0.429-6.562c0.188-2.704,1.655-4.351,3.664-5.588c1.782-1.101,3.538-2.257,5.307-3.388
		c-2.81,0.375-5.15,1.838-7.293,3.818c-1.705,1.573-2.444,3.607-2.532,6.026c-0.035,1.026-0.171,2.052-0.271,3.075
		c0.003,0.158,0.003,0.314,0.003,0.477c-0.014-0.037-0.023-0.076-0.04-0.113c0,0.012-0.003,0.022-0.003,0.039
		c-0.104,1.129-0.205,2.26-0.307,3.39c-0.003,0.009-0.008,0.019-0.012,0.03c-0.162,0.431-0.237,1.084-0.521,1.219
		c-1.182,0.574-2.401,1.246-3.651,1.392c-2.401,0.279-2.541,0.068-3.479-2.43c-0.552-1.466-1.06-2.947-1.664-4.64v1.764
		c-0.755-0.33-1.414-0.619-2.073-0.904c-0.063,0.143-0.128,0.28-0.191,0.419c0.866,0.58,1.73,1.163,2.691,1.808
		c2.03,5.699,3.164,6.214,9.604,4.289c1.217,1.515,2.93,3.084,3.954,5.093c1.014,1.989,1.99,7.575,1.99,6.751
		c0.005,0.83,0.447-2.171,0.688-3.316c0.448,0.104,0.814,0.188,0.993,0.229c0.672,2.311,1.286,4.425,1.899,6.54
		c0.353,0.313,0.353,0.313,0.418-0.157c-0.35-1.313-0.698-2.623-1.055-3.935c2.284,2.006,4.491,1.853,6.758,0.369
		c1.176-0.769,2.408-1.461,3.474-2.396c1.249-1.104,2.528-1.717,4.108-1.321c-0.271-0.479-0.545-0.942-0.604-1.06
		c0.203-1.986,0.371-3.616,0.563-5.531C793.01,341.211,793.378,340.273,793.752,339.337z M792.863,348.438
		c-0.021-0.006-0.037-0.008-0.06-0.012c0.015,0.021,0.021,0.033,0.029,0.051L792.863,348.438z M789.448,331.822l-0.009-0.012
		l-0.239,0.172c0.093-0.043,0.184-0.086,0.275-0.131C789.479,331.854,789.456,331.831,789.448,331.822z M779.352,320.889
		c-0.014,0.012-0.023,0.021-0.039,0.027c0.008-0.003,0.014-0.003,0.019-0.003L779.352,320.889z M764.443,322.239
		c2.455-0.943,3.629-0.349,5.556,2.602c-0.302-3.048-0.475-3.212-4.267-3.961c0.166-0.315,0.479-0.519,0.644-0.806
		c-0.06,0.018-0.115,0.039-0.171,0.06c0.021-0.015,0.045-0.032,0.065-0.053c-1.956,0.678-2.497,2.248-2.155,4.28
		c-3.529,0.113-6.043,1.267-7.702,3.502c-0.899,1.217-1.354,2.492-1.013,4.188c0.588,2.9,0.987,5.854,1.355,8.798
		c0.584,4.688,1.497,9.199,4.53,12.801c1.174,1.392,2.346,2.783,3.983,4.734c-0.2,7.444-0.448,15.477-0.596,23.512l1.064-3.764
		c0.229-7.031,0.071-14.08,0.071-21.622c-0.941-1.172-2.197-2.86-3.584-4.416c-2.646-2.959-3.97-6.555-4.524-10.624
		c-0.399-2.941-1.048-5.847-1.438-8.794c-0.132-0.993-0.015-2.18,0.364-3.081c1.115-2.65,3.194-4.029,5.728-4.426
		c2.527-0.396,4.853,1.896,5.75,5.377c-1.401,0.619-2.869,1.08-4.169,1.883c-1.867,1.16-2.312,3.051-1.308,4.809
		c1,1.75,3.207,2.853,4.752,1.375c-3.335,0.437-4.479-0.66-4.564-4.477c1.42-1.77,3.286-2.486,5.446-2.665
		c0.321,0.966,0.612,1.851,0.903,2.728c0.015-0.118,0.023-0.24,0.037-0.359C769.159,329.273,767.773,325.316,764.443,322.239z
		 M797.29,335.658c0.051-2.989-1.856-4.711-4.106-5.817c-0.248-5.543-0.744-6.12-5.521-6.534c0.317-5.145-0.998-6.32-6.104-5.438
		c-0.729-2.537-2.023-3.5-4.355-2.695c-3.266,1.127-6.449,2.543-9.653,3.875c-0.471,0.196-0.846,0.714-1.271,1.035
		c0.038-0.013,0.076-0.026,0.119-0.039c-0.004,0.013-0.011,0.024-0.019,0.033c3.404-1.214,7.116-1.317,10.219-3.744
		c1.382-1.085,2.415-0.56,3.188,1.103c0.271,0.592,0.545,1.185,0.844,1.83c1.518-0.762,2.996-1.529,4.328,0.271
		c0.487,2.29-0.494,3.747-2.381,4.688c0.059,0.16,0.118,0.32,0.177,0.481c1.097-0.113,2.195-0.19,3.284-0.354
		c0.945-0.14,1.896-0.576,2.818-0.508c0.76,0.063,1.761,0.479,2.134,1.112c0.316,0.544,0.083,1.728-0.237,2.44
		c-0.39,0.867-1.129,1.545-1.841,2.463c0.78,0.132,1.451,0.289,2.127,0.349c2.865,0.247,4.98,2.188,5.187,5.335
		c0.252,3.923,0.211,7.875,0.18,11.813c-0.008,0.898-0.433,1.832-0.776,2.691c-0.618,1.538-1.539,2.959-1.955,4.553
		c-1.428,5.463-5.129,7.771-9.681,8.662c-2.18,0.43-4.479,0.073-6.572,0.073c1.452,2.614,5.604,2.644,12.829-0.073
		c0,3.814-0.06,7.74,0.021,11.666c0.054,2.528,0.288,5.057,0.465,7.578l1.015,3.536l1.246-3.539
		c-0.266-3.971-0.434-6.101-0.598-9.972c-0.271-6.438-0.423-12.936,2.519-18.771C797.803,348.01,797.188,341.785,797.29,335.658z"/>
	
		<linearGradient id="SVGID_3_" gradientUnits="userSpaceOnUse" x1="-266.8203" y1="594.2891" x2="-133.4248" y2="594.2891" gradientTransform="matrix(1 0 0 1 811 -261)">
		<stop  offset="0" style="stop-color:#B34DF7"/>
		<stop  offset="1" style="stop-color:#69D5FF"/>
	</linearGradient>
	<path display="inline" opacity="0.5" fill="url(#SVGID_3_)" enable-background="new    " d="M544.18,343.119v-19.651h6.751
		c1.375,0,2.479,0.199,3.312,0.599c0.831,0.396,1.479,1.011,1.952,1.836c0.471,0.824,0.705,1.688,0.705,2.595
		c0,0.84-0.209,1.631-0.625,2.373c-0.421,0.741-1.052,1.341-1.895,1.796c1.088,0.35,1.925,0.939,2.51,1.783
		c0.585,0.84,0.878,1.832,0.878,2.976c0,0.92-0.178,1.776-0.53,2.567c-0.356,0.791-0.798,1.398-1.319,1.83
		c-0.523,0.429-1.181,0.752-1.97,0.972c-0.79,0.219-1.757,0.329-2.903,0.329L544.18,343.119L544.18,343.119z M546.561,331.725h3.895
		c1.056,0,1.813-0.072,2.271-0.228c0.606-0.197,1.063-0.522,1.369-0.979c0.311-0.453,0.46-1.024,0.46-1.716
		c0-0.649-0.143-1.227-0.43-1.723s-0.696-0.835-1.229-1.021c-0.53-0.185-1.442-0.272-2.735-0.272h-3.601V331.725L546.561,331.725z
		 M546.561,340.8h4.48c0.769,0,1.31-0.03,1.621-0.094c0.548-0.106,1.006-0.286,1.375-0.536s0.671-0.613,0.909-1.092
		c0.233-0.479,0.354-1.03,0.354-1.655c0-0.729-0.172-1.37-0.516-1.909c-0.345-0.541-0.821-0.921-1.434-1.141
		c-0.606-0.219-1.483-0.328-2.633-0.328h-4.162v6.755H546.561L546.561,340.8z M569.688,338.535l2.284,0.309
		c-0.356,1.457-1.023,2.588-2.001,3.395c-0.974,0.804-2.218,1.207-3.729,1.207c-1.907,0-3.418-0.645-4.536-1.928
		c-1.117-1.278-1.675-3.078-1.675-5.395c0-2.396,0.563-4.254,1.69-5.576c1.13-1.322,2.598-1.982,4.396-1.982
		c1.743,0,3.167,0.646,4.271,1.941c1.104,1.297,1.657,3.119,1.657,5.469c0,0.146-0.004,0.357-0.013,0.646h-9.726
		c0.082,1.563,0.487,2.761,1.219,3.592c0.729,0.831,1.637,1.247,2.725,1.247c0.811,0,1.502-0.231,2.075-0.696
		C568.898,340.295,569.352,339.555,569.688,338.535z M562.433,334.634h7.279c-0.098-1.198-0.376-2.096-0.835-2.69
		c-0.704-0.934-1.616-1.396-2.737-1.396c-1.015,0-1.868,0.371-2.559,1.112C562.889,332.4,562.507,333.393,562.433,334.634z
		 M580.846,338.87l2.188-0.375c0.123,0.956,0.464,1.688,1.021,2.198c0.563,0.509,1.348,0.764,2.354,0.764
		c1.015,0,1.768-0.227,2.259-0.678c0.491-0.45,0.736-0.979,0.736-1.588c0-0.545-0.22-0.977-0.65-1.287
		c-0.303-0.213-1.056-0.486-2.259-0.817c-1.62-0.446-2.744-0.833-3.37-1.159s-1.101-0.775-1.424-1.354
		c-0.323-0.579-0.485-1.213-0.485-1.91c0-0.635,0.133-1.223,0.399-1.764c0.266-0.541,0.628-0.989,1.086-1.35
		c0.344-0.273,0.812-0.512,1.405-0.703c0.594-0.189,1.229-0.287,1.906-0.287c1.023,0,1.923,0.159,2.694,0.48
		c0.771,0.32,1.344,0.757,1.712,1.307c0.368,0.553,0.622,1.284,0.761,2.205l-2.161,0.322c-0.098-0.73-0.383-1.305-0.853-1.716
		c-0.471-0.411-1.136-0.616-1.995-0.616c-1.015,0-1.739,0.184-2.173,0.549c-0.437,0.367-0.651,0.795-0.651,1.287
		c0,0.313,0.091,0.596,0.271,0.846c0.18,0.262,0.462,0.477,0.847,0.646c0.222,0.089,0.872,0.295,1.952,0.616
		c1.563,0.457,2.653,0.83,3.271,1.119c0.617,0.291,1.104,0.713,1.455,1.268c0.354,0.555,0.527,1.242,0.527,2.063
		c0,0.808-0.215,1.563-0.646,2.272c-0.433,0.71-1.052,1.26-1.858,1.649c-0.812,0.389-1.728,0.582-2.75,0.582
		c-1.694,0-2.985-0.387-3.873-1.152C581.658,341.52,581.092,340.38,580.846,338.87z M602.807,341.363
		c-0.814,0.759-1.604,1.296-2.359,1.604c-0.759,0.313-1.569,0.472-2.438,0.472c-1.432,0-2.533-0.385-3.302-1.146
		c-0.771-0.765-1.154-1.741-1.154-2.929c0-0.697,0.146-1.333,0.438-1.91c0.291-0.576,0.671-1.039,1.142-1.387
		c0.471-0.353,1-0.612,1.59-0.791c0.438-0.125,1.09-0.246,1.965-0.362c1.783-0.231,3.101-0.509,3.939-0.831
		c0.008-0.331,0.012-0.541,0.012-0.63c0-0.983-0.208-1.677-0.626-2.078c-0.563-0.545-1.399-0.817-2.517-0.817
		c-1.039,0-1.807,0.198-2.302,0.6c-0.495,0.396-0.861,1.102-1.103,2.107l-2.158-0.317c0.194-1.013,0.521-1.825,0.972-2.447
		c0.45-0.621,1.101-1.099,1.952-1.435c0.851-0.334,1.837-0.502,2.958-0.502c1.109,0,2.017,0.144,2.713,0.43
		c0.691,0.286,1.207,0.646,1.534,1.079c0.325,0.433,0.557,0.979,0.688,1.642c0.074,0.411,0.111,1.153,0.111,2.229v3.217
		c0,2.243,0.047,3.662,0.141,4.256s0.28,1.164,0.561,1.709h-2.311C603.02,342.619,602.872,342.033,602.807,341.363z
		 M602.623,335.975c-0.802,0.357-2.005,0.662-3.609,0.912c-0.908,0.146-1.551,0.307-1.927,0.482
		c-0.376,0.175-0.667,0.438-0.872,0.783c-0.205,0.345-0.307,0.727-0.307,1.146c0,0.646,0.223,1.18,0.669,1.608
		c0.446,0.428,1.099,0.644,1.958,0.644c0.851,0,1.604-0.203,2.271-0.607c0.663-0.406,1.15-0.965,1.461-1.668
		c0.237-0.549,0.356-1.353,0.356-2.414V335.975z M608.81,343.119V330.76h-1.948v-1.877h1.948v-1.515
		c0-0.956,0.078-1.667,0.233-2.132c0.213-0.625,0.587-1.131,1.123-1.521c0.536-0.389,1.287-0.583,2.253-0.583
		c0.622,0,1.309,0.081,2.062,0.241l-0.328,2.104c-0.458-0.09-0.896-0.135-1.305-0.135c-0.671,0-1.146,0.156-1.424,0.473
		c-0.278,0.313-0.417,0.896-0.417,1.756v1.313h2.541v1.877h-2.541v12.359L608.81,343.119L608.81,343.119z M624.19,338.535
		l2.279,0.309c-0.356,1.457-1.023,2.588-2.001,3.395c-0.974,0.804-2.218,1.207-3.729,1.207c-1.907,0-3.418-0.645-4.536-1.928
		c-1.117-1.278-1.675-3.078-1.675-5.395c0-2.396,0.563-4.254,1.69-5.576c1.129-1.322,2.598-1.982,4.396-1.982
		c1.743,0,3.167,0.646,4.271,1.941c1.104,1.297,1.657,3.119,1.657,5.469c0,0.146-0.004,0.357-0.012,0.646h-9.726
		c0.082,1.563,0.487,2.761,1.219,3.592c0.728,0.831,1.637,1.247,2.725,1.247c0.81,0,1.501-0.231,2.074-0.696
		C623.4,340.295,623.855,339.555,624.19,338.535z M616.936,334.634h7.279c-0.098-1.198-0.376-2.096-0.835-2.69
		c-0.704-0.934-1.616-1.396-2.737-1.396c-1.015,0-1.864,0.371-2.559,1.112C617.392,332.4,617.009,333.393,616.936,334.634z
		 M638.638,343.119l-3.985-14.236h2.279l2.075,8.217l0.773,3.06c0.032-0.152,0.257-1.13,0.675-2.938l2.075-8.338h2.271l1.952,8.258
		l0.65,2.723l0.749-2.747l2.23-8.23h2.148l-4.075,14.236h-2.296l-2.074-8.524l-0.503-2.427l-2.639,10.952L638.638,343.119
		L638.638,343.119z M654.4,326.243v-2.774h2.209v2.774H654.4z M654.4,343.119v-14.236h2.209v14.236H654.4z M664.797,340.961
		l0.319,2.131c-0.622,0.146-1.182,0.215-1.669,0.215c-0.806,0-1.424-0.14-1.866-0.416c-0.442-0.274-0.753-0.642-0.933-1.093
		c-0.184-0.45-0.271-1.397-0.271-2.849v-8.19h-1.62v-1.877h1.62v-3.522l2.197-1.446v4.973h2.222v1.878h-2.222v8.323
		c0,0.688,0.039,1.13,0.117,1.327c0.074,0.197,0.201,0.354,0.38,0.469c0.176,0.116,0.428,0.174,0.755,0.174
		C664.073,341.055,664.396,341.023,664.797,340.961z M666.958,343.119v-19.651h2.209v7.052c1.031-1.306,2.333-1.957,3.904-1.957
		c0.965,0,1.804,0.207,2.516,0.623s1.222,0.989,1.528,1.726c0.307,0.729,0.46,1.796,0.46,3.188v9.021h-2.209V334.1
		c0-1.207-0.239-2.084-0.718-2.635c-0.479-0.55-1.156-0.824-2.032-0.824c-0.655,0-1.271,0.188-1.852,0.56
		c-0.573,0.37-0.984,0.874-1.229,1.508c-0.246,0.635-0.369,1.51-0.369,2.627v7.788L666.958,343.119L666.958,343.119z"/>
	
		<linearGradient id="SVGID_4_" gradientUnits="userSpaceOnUse" x1="-270.4844" y1="622.7695" x2="-94.71" y2="622.7695" gradientTransform="matrix(1 0 0 1 811 -261)">
		<stop  offset="0" style="stop-color:#B34DF7"/>
		<stop  offset="1" style="stop-color:#69D5FF"/>
	</linearGradient>
	<path display="inline" opacity="0.5" fill="url(#SVGID_4_)" enable-background="new    " d="M546.009,366.712
		c1.031,0.577,2.615,1.153,4.249,1.153c1.76,0,2.69-0.797,2.69-2.004c0-1.153-0.808-1.813-2.841-2.608
		c-2.816-1.069-4.651-2.771-4.651-5.463c0-3.157,2.414-5.573,6.411-5.573c1.911,0,3.315,0.439,4.325,0.938l-0.855,3.377
		c-0.679-0.357-1.886-0.879-3.545-0.879c-1.66,0-2.464,0.822-2.464,1.783c0,1.183,0.956,1.701,3.143,2.607
		c2.992,1.208,4.4,2.91,4.4,5.518c0,3.104-2.188,5.738-6.839,5.738c-1.938,0-3.847-0.549-4.802-1.126L546.009,366.712z
		 M562.727,356.032h-4.551v-3.517H571.2v3.517h-4.626v14.989h-3.851L562.727,356.032L562.727,356.032z M573.235,352.766
		c1.229-0.221,3.063-0.385,5.104-0.385c2.514,0,4.274,0.412,5.48,1.455c1.006,0.878,1.559,2.169,1.559,3.871
		c0,2.361-1.534,3.98-2.992,4.557v0.084c1.186,0.521,1.835,1.756,2.267,3.459c0.524,2.086,1.056,4.502,1.383,5.219h-3.922
		c-0.276-0.521-0.683-2.031-1.186-4.313c-0.453-2.306-1.182-2.938-2.74-2.965h-1.153v7.274h-3.796L573.235,352.766L573.235,352.766z
		 M577.031,360.727h1.509c1.911,0,3.042-1.043,3.042-2.66c0-1.701-1.056-2.556-2.816-2.58c-0.93,0-1.458,0.082-1.731,0.137
		L577.031,360.727L577.031,360.727z M603.554,361.578c0,6.064-3.369,9.746-8.318,9.746c-5.028,0-7.974-4.146-7.974-9.417
		c0-5.546,3.243-9.691,8.247-9.691C600.713,352.216,603.554,356.473,603.554,361.578z M591.311,361.825
		c0,3.624,1.563,6.177,4.123,6.177c2.594,0,4.073-2.691,4.073-6.287c0-3.322-1.458-6.177-4.098-6.177
		C592.819,355.538,591.311,358.229,591.311,361.825z M606.067,371.021v-18.506h4.475l3.521,6.78
		c1.008,1.949,2.014,4.255,2.769,6.343h0.075c-0.251-2.44-0.327-4.938-0.327-7.715v-5.408h3.52v18.506h-4.021l-3.621-7.141
		c-1.005-1.977-2.112-4.363-2.941-6.533l-0.071,0.026c0.101,2.442,0.146,5.052,0.146,8.072v5.571L606.067,371.021L606.067,371.021z
		 M637.568,370.171c-1.186,0.438-3.419,1.043-5.657,1.043c-3.092,0-5.33-0.851-6.889-2.499c-1.563-1.592-2.414-4.008-2.393-6.727
		c0.025-6.149,4.124-9.663,9.683-9.663c2.188,0,3.87,0.467,4.699,0.905l-0.805,3.351c-0.93-0.438-2.086-0.796-3.947-0.796
		c-3.189,0-5.604,1.977-5.604,5.982c0,3.815,2.188,6.066,5.33,6.066c0.88,0,1.584-0.109,1.886-0.273v-3.869h-2.615v-3.27h6.313
		L637.568,370.171L637.568,370.171z M640.559,352.766c1.186-0.221,2.845-0.385,5.183-0.385c2.36,0,4.048,0.494,5.179,1.482
		c1.081,0.934,1.813,2.471,1.813,4.283c0,1.812-0.556,3.35-1.562,4.393c-1.308,1.345-3.243,1.949-5.506,1.949
		c-0.503,0-0.956-0.028-1.308-0.084v6.617h-3.798L640.559,352.766L640.559,352.766z M644.355,361.166
		c0.323,0.083,0.729,0.109,1.278,0.109c2.037,0,3.293-1.125,3.293-3.021c0-1.702-1.081-2.718-2.989-2.718
		c-0.778,0-1.31,0.083-1.584,0.165v5.463L644.355,361.166L644.355,361.166z M657.604,366.271l-1.203,4.75h-3.976l5.183-18.506h5.024
		l5.255,18.506h-4.124l-1.307-4.75H657.604z M661.903,363.143l-1.06-3.926c-0.302-1.098-0.603-2.471-0.854-3.566h-0.05
		c-0.251,1.099-0.503,2.498-0.779,3.566l-1.006,3.926H661.903z M670.274,366.712c1.027,0.577,2.611,1.153,4.249,1.153
		c1.76,0,2.688-0.797,2.688-2.004c0-1.153-0.805-1.813-2.841-2.608c-2.815-1.069-4.651-2.771-4.651-5.463
		c0-3.157,2.414-5.573,6.411-5.573c1.911,0,3.318,0.439,4.324,0.938l-0.855,3.377c-0.679-0.357-1.885-0.879-3.545-0.879
		c-1.655,0-2.464,0.822-2.464,1.783c0,1.183,0.956,1.701,3.146,2.607c2.99,1.208,4.396,2.91,4.396,5.518
		c0,3.104-2.187,5.738-6.838,5.738c-1.936,0-3.847-0.549-4.802-1.126L670.274,366.712z M683.849,366.712
		c1.031,0.577,2.615,1.153,4.25,1.153c1.764,0,2.689-0.797,2.689-2.004c0-1.153-0.805-1.813-2.841-2.608
		c-2.816-1.069-4.651-2.771-4.651-5.463c0-3.157,2.414-5.573,6.411-5.573c1.911,0,3.318,0.439,4.324,0.938l-0.854,3.377
		c-0.679-0.357-1.886-0.879-3.545-0.879s-2.464,0.822-2.464,1.783c0,1.183,0.955,1.701,3.143,2.607
		c2.992,1.208,4.399,2.91,4.399,5.518c0,3.104-2.187,5.738-6.838,5.738c-1.938,0-3.847-0.549-4.802-1.126L683.849,366.712z
		 M696.896,368.798c0-1.479,0.931-2.553,2.263-2.553c1.333,0,2.237,1.043,2.237,2.553c0,1.455-0.904,2.526-2.267,2.526
		C697.827,371.324,696.896,370.253,696.896,368.798z M703.433,368.798c0-1.479,0.934-2.553,2.267-2.553
		c1.332,0,2.233,1.043,2.233,2.553c0,1.455-0.901,2.526-2.263,2.526C704.362,371.324,703.433,370.253,703.433,368.798z
		 M709.969,368.798c0-1.479,0.935-2.553,2.267-2.553c1.331,0,2.233,1.043,2.233,2.553c0,1.455-0.901,2.526-2.263,2.526
		C710.899,371.324,709.969,370.253,709.969,368.798z M716.505,368.798c0-1.479,0.931-2.553,2.263-2.553
		c1.333,0,2.237,1.043,2.237,2.553c0,1.455-0.904,2.526-2.263,2.526C717.436,371.324,716.505,370.253,716.505,368.798z"/>
	
		<linearGradient id="SVGID_5_" gradientUnits="userSpaceOnUse" x1="-315.5" y1="712.2412" x2="-244.6729" y2="712.2412" gradientTransform="matrix(1 0 0 1 811 -261)">
		<stop  offset="0" style="stop-color:#B34DF7"/>
		<stop  offset="1" style="stop-color:#69D5FF"/>
	</linearGradient>
	<path display="inline" opacity="0.1" fill="url(#SVGID_5_)" enable-background="new    " d="M566.327,489.417
		c0,0-11.873-39.119-36.992-39.463c-25.119-0.343-33.835-36.889-33.835-36.889v76.352H566.327L566.327,489.417z"/>
	
		<linearGradient id="SVGID_6_" gradientUnits="userSpaceOnUse" x1="-315.5" y1="563.2109" x2="-258.6699" y2="563.2109" gradientTransform="matrix(1 0 0 1 811 -261)">
		<stop  offset="0" style="stop-color:#B34DF7"/>
		<stop  offset="1" style="stop-color:#69D5FF"/>
	</linearGradient>
	<path display="inline" opacity="0.1" fill="url(#SVGID_6_)" enable-background="new    " d="M495.5,325.841
		c0,0,26.08-3.884,33.561-18.64c7.481-14.756,23.27-28.619,23.27-28.619H495.5V325.841z"/>
	
		<linearGradient id="SVGID_7_" gradientUnits="userSpaceOnUse" x1="-266.8262" y1="645.1641" x2="-199.0332" y2="645.1641" gradientTransform="matrix(1 0 0 1 811 -261)">
		<stop  offset="0" style="stop-color:#B34DF7"/>
		<stop  offset="1" style="stop-color:#69D5FF"/>
	</linearGradient>
	<path display="inline" opacity="0.5" fill="url(#SVGID_7_)" enable-background="new    " d="M544.18,388.677v-2.3
		c0.432,0.281,0.854,0.491,1.279,0.629c0.425,0.139,0.827,0.206,1.205,0.206c0.46,0,0.824-0.067,1.09-0.206
		c0.269-0.138,0.399-0.348,0.399-0.629c0-0.18-0.063-0.329-0.185-0.449c-0.121-0.119-0.272-0.225-0.465-0.313
		c-0.188-0.09-0.396-0.17-0.621-0.242c-0.225-0.071-0.438-0.152-0.646-0.242c-0.334-0.138-0.629-0.285-0.888-0.445
		c-0.255-0.156-0.469-0.342-0.642-0.552c-0.172-0.209-0.304-0.452-0.396-0.728c-0.092-0.276-0.137-0.604-0.137-0.979
		c0-0.515,0.104-0.958,0.312-1.329c0.206-0.371,0.479-0.675,0.819-0.912c0.347-0.232,0.734-0.406,1.18-0.521
		c0.438-0.11,0.896-0.166,1.377-0.166c0.373,0,0.751,0.032,1.135,0.094c0.384,0.063,0.762,0.154,1.135,0.274v2.188
		c-0.329-0.209-0.682-0.363-1.057-0.471c-0.375-0.104-0.744-0.157-1.106-0.157c-0.17,0-0.331,0.021-0.479,0.05
		c-0.151,0.032-0.284,0.08-0.399,0.146c-0.115,0.063-0.206,0.144-0.271,0.243c-0.066,0.099-0.103,0.211-0.103,0.337
		c0,0.167,0.05,0.312,0.148,0.431c0.098,0.12,0.228,0.227,0.386,0.313c0.159,0.088,0.336,0.166,0.531,0.23
		c0.191,0.069,0.388,0.143,0.58,0.211c0.346,0.133,0.657,0.275,0.938,0.434c0.279,0.154,0.521,0.339,0.724,0.549
		c0.196,0.21,0.354,0.455,0.46,0.734c0.104,0.28,0.157,0.615,0.157,1.008c0,0.545-0.105,1.011-0.322,1.396
		c-0.22,0.388-0.506,0.701-0.864,0.943c-0.359,0.241-0.772,0.419-1.242,0.528c-0.469,0.108-0.956,0.164-1.46,0.164
		C545.827,389.145,544.969,388.986,544.18,388.677z M557.232,388.811c-0.388,0.226-0.966,0.334-1.735,0.334
		c-1.832,0-2.747-1.037-2.747-3.115v-4.211h-1.365v-2.096h1.365v-1.981l2.591-0.812v2.793h1.896v2.096h-1.896v3.718
		c0,0.959,0.352,1.438,1.044,1.438c0.274,0,0.561-0.088,0.851-0.262L557.232,388.811L557.232,388.811z M565.703,388.919h-2.459
		V387.6h-0.033c-0.564,1.028-1.401,1.545-2.508,1.545c-0.817,0-1.46-0.254-1.929-0.76c-0.473-0.506-0.703-1.182-0.703-2.021
		c0-1.784,0.968-2.814,2.899-3.094l2.286-0.328c0-1.01-0.499-1.512-1.497-1.512c-1.003,0-1.958,0.325-2.858,0.979v-2.141
		c0.358-0.201,0.854-0.384,1.481-0.537c0.627-0.155,1.199-0.233,1.714-0.233c2.402,0,3.604,1.31,3.604,3.925L565.703,388.919
		L565.703,388.919z M563.26,385.184v-0.617l-1.526,0.216c-0.848,0.12-1.271,0.536-1.271,1.247c0,0.32,0.104,0.59,0.312,0.796
		c0.204,0.207,0.481,0.312,0.836,0.312c0.484,0,0.885-0.186,1.188-0.554C563.106,386.212,563.26,385.745,563.26,385.184z
		 M575.778,379.723l-3.422,9.936c-0.822,2.389-2.063,3.583-3.721,3.583c-0.63,0-1.146-0.078-1.554-0.233v-2.264
		c0.345,0.222,0.721,0.333,1.126,0.333c0.669,0,1.135-0.349,1.398-1.033l0.44-1.142l-3.421-9.18h2.879l1.571,5.598
		c0.099,0.348,0.175,0.758,0.229,1.229h0.033c0.049-0.348,0.144-0.751,0.271-1.213l1.587-5.613H575.778L575.778,379.723z
		 M580.918,388.677v-2.3c0.428,0.281,0.854,0.491,1.279,0.629c0.425,0.139,0.827,0.206,1.205,0.206c0.46,0,0.819-0.067,1.09-0.206
		c0.266-0.138,0.396-0.348,0.396-0.629c0-0.18-0.06-0.329-0.181-0.449c-0.121-0.119-0.275-0.225-0.465-0.313
		c-0.189-0.09-0.396-0.17-0.621-0.242c-0.225-0.071-0.441-0.152-0.649-0.242c-0.334-0.138-0.629-0.285-0.884-0.445
		c-0.255-0.156-0.469-0.342-0.642-0.552c-0.172-0.209-0.307-0.452-0.396-0.728s-0.136-0.604-0.136-0.979
		c0-0.515,0.104-0.958,0.31-1.329s0.479-0.675,0.821-0.912c0.342-0.232,0.735-0.406,1.177-0.521c0.44-0.11,0.899-0.166,1.377-0.166
		c0.373,0,0.751,0.032,1.138,0.094c0.384,0.063,0.762,0.154,1.135,0.274v2.188c-0.329-0.209-0.682-0.363-1.057-0.471
		c-0.376-0.104-0.745-0.157-1.106-0.157c-0.17,0-0.331,0.021-0.479,0.05c-0.148,0.032-0.282,0.08-0.396,0.146
		c-0.115,0.063-0.206,0.144-0.271,0.243c-0.064,0.099-0.101,0.211-0.101,0.337c0,0.167,0.049,0.312,0.148,0.431
		c0.099,0.12,0.228,0.227,0.386,0.313c0.159,0.088,0.336,0.166,0.531,0.23c0.19,0.069,0.388,0.143,0.58,0.211
		c0.346,0.133,0.654,0.275,0.938,0.434c0.279,0.154,0.521,0.339,0.719,0.549c0.2,0.21,0.354,0.455,0.462,0.734
		c0.106,0.28,0.159,0.615,0.159,1.008c0,0.545-0.104,1.011-0.325,1.396c-0.217,0.388-0.505,0.701-0.86,0.943
		c-0.359,0.241-0.773,0.419-1.242,0.528c-0.469,0.108-0.956,0.164-1.46,0.164C582.566,389.145,581.708,388.986,580.918,388.677z
		 M595.887,388.919h-2.459V387.6h-0.033c-0.563,1.028-1.397,1.545-2.509,1.545c-0.813,0-1.459-0.254-1.928-0.76
		s-0.704-1.182-0.704-2.021c0-1.784,0.968-2.814,2.903-3.094l2.287-0.328c0-1.01-0.499-1.512-1.497-1.512
		c-1.003,0-1.957,0.325-2.862,0.979v-2.141c0.362-0.201,0.856-0.384,1.484-0.537c0.627-0.155,1.198-0.233,1.715-0.233
		c2.401,0,3.602,1.31,3.602,3.925L595.887,388.919L595.887,388.919z M593.444,385.184v-0.617l-1.53,0.216
		c-0.844,0.12-1.271,0.536-1.271,1.247c0,0.32,0.104,0.59,0.312,0.796c0.206,0.207,0.48,0.312,0.835,0.312
		c0.488,0,0.886-0.186,1.192-0.554C593.291,386.211,593.444,385.745,593.444,385.184z M603.438,377.477
		c-0.334-0.144-0.652-0.216-0.963-0.216c-0.833,0-1.25,0.494-1.25,1.482v0.979h1.928v2.096h-1.928v7.104h-2.591v-7.104h-1.415
		v-2.096h1.415v-1.142c0-1.047,0.313-1.892,0.938-2.533c0.625-0.641,1.475-0.961,2.55-0.961c0.526,0,0.965,0.063,1.313,0.181
		L603.438,377.477L603.438,377.477z M611.966,385.129h-5.494c0.088,1.335,0.858,2.003,2.313,2.003c0.927,0,1.741-0.239,2.439-0.719
		v2.048c-0.775,0.455-1.79,0.684-3.031,0.684c-1.36,0-2.416-0.41-3.167-1.232c-0.751-0.823-1.128-1.973-1.128-3.444
		c0-1.522,0.403-2.733,1.218-3.628c0.811-0.892,1.81-1.338,2.994-1.338c1.229,0,2.178,0.398,2.85,1.195
		c0.671,0.796,1.007,1.877,1.007,3.238L611.966,385.129L611.966,385.129z M609.556,383.387c0-1.313-0.484-1.976-1.464-1.976
		c-0.417,0-0.773,0.188-1.081,0.563c-0.305,0.377-0.486,0.85-0.555,1.409L609.556,383.387L609.556,383.387z"/>
</g>
<g id="Layer_1_1_" display="none">
	
		<linearGradient id="SVGID_8_" gradientUnits="userSpaceOnUse" x1="-35.127" y1="733.2637" x2="28.7461" y2="733.2637" gradientTransform="matrix(1 0 0 1 811 -261)">
		<stop  offset="0" style="stop-color:#B34DF7"/>
		<stop  offset="1" style="stop-color:#69D5FF"/>
	</linearGradient>
	<path display="inline" fill="url(#SVGID_8_)" d="M786.711,456.685c0,0-0.532-0.11-1.597-0.34c-1.065-0.227-2.062-0.563-2.981-1.02
		c-0.923-0.453-1.786-1.021-2.59-1.698l2.157-2.65c0.938,0.815,1.976,1.431,3.104,1.839c1.134,0.403,2.361,0.607,3.688,0.607
		c1.789,0,3.177-0.331,4.162-0.994c0.981-0.662,1.478-1.6,1.478-2.812V449.6c0-0.856-0.224-1.543-0.671-2.047
		s-1.023-0.878-1.729-1.121c-0.709-0.24-1.623-0.468-2.743-0.671c-0.034-0.011-0.07-0.018-0.109-0.018
		c-0.04,0-0.077-0.005-0.111-0.021l-0.255-0.051c-1.65-0.283-2.998-0.603-4.033-0.96c-1.033-0.354-1.924-1.008-2.656-1.953
		c-0.736-0.942-1.104-2.291-1.104-4.035v-0.017c0-1.529,0.344-2.834,1.028-3.916c0.685-1.081,1.684-1.905,2.998-2.472
		c1.313-0.565,2.893-0.854,4.736-0.854c0.886,0,1.753,0.101,2.606,0.289c0.854,0.193,1.698,0.479,2.531,0.857
		c0.832,0.38,1.646,0.854,2.454,1.436l-1.974,2.752c-0.938-0.688-1.877-1.208-2.813-1.554c-0.937-0.346-1.871-0.519-2.813-0.519
		c-1.688,0-3,0.337-3.934,1.011c-0.937,0.674-1.4,1.628-1.4,2.86v0.02c0,0.85,0.239,1.518,0.725,2.004
		c0.479,0.487,1.08,0.847,1.801,1.079c0.719,0.231,1.718,0.474,2.998,0.722c0.045,0.016,0.088,0.021,0.128,0.026
		c0.039,0.005,0.081,0.014,0.127,0.021c0.057,0.015,0.119,0.021,0.188,0.033c0.066,0.016,0.133,0.022,0.188,0.034
		c1.495,0.307,2.743,0.668,3.746,1.087c1.001,0.42,1.84,1.098,2.514,2.03c0.674,0.935,1.013,2.211,1.013,3.831v0.033
		c0,1.507-0.355,2.794-1.068,3.861c-0.714,1.069-1.747,1.889-3.102,2.446c-1.354,0.562-2.985,0.841-4.899,0.841
		C787.306,456.685,786.711,456.685,786.711,456.685z M799.095,431.729h17.434v3.3h-17.434V431.729z M806.077,433.751h3.465v22.679
		h-3.465V433.751z M819.922,431.713h3.465v24.717h-3.465V431.713z M821.434,442.688h8.43c0.652,0,1.236-0.155,1.749-0.477
		c0.51-0.317,0.899-0.767,1.181-1.35c0.277-0.584,0.417-1.255,0.417-2.018c0-0.759-0.14-1.43-0.417-2.014
		c-0.273-0.583-0.668-1.032-1.172-1.35c-0.504-0.318-1.09-0.479-1.758-0.479h-8.43v-3.296h8.291c1.43,0,2.684,0.294,3.766,0.884
		c1.081,0.589,1.919,1.424,2.514,2.505c0.594,1.082,0.895,2.331,0.895,3.746s-0.303,2.664-0.899,3.746
		c-0.601,1.081-1.44,1.916-2.521,2.505c-1.082,0.589-2.326,0.886-3.742,0.886h-8.291v-3.295h-0.006v0.004h-0.005V442.688z
		 M828.16,445.218l3.447-0.781l6.316,11.993h-4.107L828.16,445.218z M780.001,483.572c-1.313-0.753-2.33-1.816-3.049-3.193
		c-0.72-1.375-1.079-2.97-1.079-4.781v-6.999c0-1.813,0.359-3.402,1.079-4.778c0.719-1.376,1.734-2.44,3.049-3.193
		s2.832-1.13,4.553-1.13c1.723,0,3.239,0.377,4.555,1.13c1.313,0.753,2.329,1.817,3.051,3.193c0.72,1.376,1.078,2.97,1.078,4.778
		v6.999c0,1.813-0.358,3.406-1.078,4.781c-0.722,1.377-1.735,2.44-3.051,3.193c-1.313,0.754-2.83,1.13-4.555,1.13
		C782.833,484.702,781.314,484.326,780.001,483.572z M787.247,480.601c0.774-0.46,1.375-1.106,1.8-1.95
		c0.425-0.848,0.637-1.82,0.637-2.935v-7.232c0-1.109-0.212-2.091-0.637-2.934c-0.425-0.844-1.022-1.495-1.8-1.954
		c-0.776-0.458-1.674-0.688-2.693-0.688c-1.019,0-1.917,0.229-2.688,0.688c-0.775,0.459-1.376,1.11-1.805,1.954
		c-0.424,0.843-0.637,1.82-0.637,2.934v7.232c0,1.11,0.213,2.087,0.637,2.935c0.429,0.844,1.025,1.49,1.805,1.95
		c0.771,0.458,1.674,0.688,2.688,0.688C785.573,481.288,786.471,481.059,787.247,480.601z M798.5,459.748h3.145l12.076,19.094
		l-0.405,0.441v-19.535h3.434v24.683h-3.177l-12.044-18.805l0.403-0.442v19.247H798.5V459.748z M839.746,471.146v4.313
		c0,1.835-0.357,3.451-1.07,4.85c-0.714,1.399-1.725,2.48-3.033,3.246c-1.307,0.768-2.818,1.146-4.543,1.146
		c-1.744,0-3.272-0.359-4.596-1.078c-1.319-0.72-2.342-1.735-3.066-3.05c-0.724-1.313-1.087-2.837-1.087-4.569v-7.287
		c0-1.835,0.356-3.449,1.07-4.842s1.724-2.472,3.032-3.236c1.308-0.764,2.822-1.146,4.544-1.146c1.416,0,2.721,0.303,3.916,0.908
		c1.194,0.604,2.192,1.465,2.998,2.57c0.805,1.11,1.348,2.396,1.631,3.856h-3.754c-0.204-0.827-0.55-1.538-1.036-2.132
		c-0.487-0.598-1.061-1.048-1.716-1.359c-0.657-0.312-1.337-0.467-2.039-0.467c-1.021,0-1.914,0.243-2.688,0.729
		c-0.771,0.487-1.361,1.171-1.78,2.051c-0.418,0.877-0.63,1.896-0.63,3.063V476c0,1.064,0.217,1.996,0.646,2.795
		c0.43,0.798,1.039,1.418,1.825,1.859c0.787,0.438,1.694,0.663,2.728,0.663c1.021,0,1.914-0.23,2.688-0.688
		c0.77-0.46,1.362-1.124,1.78-1.997c0.421-0.871,0.631-1.907,0.631-3.104v-1.07h-5.015v-3.313h8.563V471.146L839.746,471.146z
		 M778.346,488.106h3.465v24.696h-3.465V488.106z M780.128,499.93h7.9c0.747,0,1.399-0.175,1.971-0.522
		c0.565-0.354,1.004-0.854,1.315-1.495c0.311-0.646,0.467-1.388,0.467-2.229c0-0.849-0.155-1.597-0.467-2.238
		c-0.313-0.646-0.75-1.146-1.315-1.504c-0.567-0.355-1.224-0.534-1.971-0.534h-7.9v-3.296h7.78c1.473,0,2.77,0.313,3.891,0.938
		c1.122,0.63,1.99,1.52,2.607,2.659s0.927,2.469,0.927,3.975c0,1.511-0.31,2.829-0.927,3.971c-0.617,1.139-1.485,2.02-2.607,2.642
		c-1.121,0.623-2.418,0.938-3.891,0.938h-7.78V499.93z M805.304,513.063c0,0-0.531-0.111-1.597-0.341
		c-1.064-0.227-2.059-0.563-2.98-1.02c-0.924-0.452-1.784-1.021-2.592-1.699l2.158-2.649c0.939,0.815,1.978,1.431,3.108,1.838
		c1.131,0.404,2.357,0.608,3.687,0.608c1.788,0,3.176-0.332,4.161-0.994c0.985-0.663,1.479-1.599,1.479-2.812v-0.021
		c0-0.857-0.228-1.543-0.673-2.048c-0.445-0.503-1.023-0.877-1.731-1.121c-0.708-0.239-1.622-0.467-2.743-0.67
		c-0.034-0.012-0.071-0.018-0.11-0.018s-0.073-0.005-0.106-0.021l-0.255-0.051c-1.653-0.283-2.998-0.604-4.034-0.96
		c-1.036-0.354-1.923-1.008-2.659-1.954c-0.732-0.941-1.104-2.29-1.104-4.034v-0.017c0-1.529,0.344-2.835,1.024-3.916
		c0.688-1.081,1.688-1.905,2.998-2.472c1.314-0.566,2.896-0.854,4.74-0.854c0.884,0,1.752,0.101,2.606,0.289
		c0.854,0.192,1.695,0.479,2.528,0.858c0.832,0.379,1.65,0.854,2.454,1.435l-1.971,2.752c-0.939-0.688-1.877-1.208-2.813-1.555
		c-0.935-0.345-1.872-0.52-2.812-0.52c-1.688,0-2.999,0.339-3.937,1.014c-0.935,0.673-1.397,1.628-1.397,2.859v0.02
		c0,0.849,0.238,1.517,0.722,2.004c0.479,0.487,1.082,0.847,1.801,1.078c0.723,0.229,1.721,0.474,2.998,0.723
		c0.045,0.016,0.088,0.021,0.127,0.025c0.04,0.006,0.082,0.015,0.129,0.022c0.059,0.015,0.117,0.022,0.188,0.033
		c0.064,0.014,0.13,0.023,0.188,0.034c1.495,0.307,2.743,0.669,3.745,1.087c1.003,0.419,1.841,1.097,2.519,2.03
		c0.674,0.934,1.011,2.211,1.011,3.83v0.032c0,1.509-0.357,2.797-1.071,3.862c-0.713,1.071-1.745,1.891-3.1,2.446
		c-1.354,0.563-2.987,0.842-4.9,0.842C805.898,513.063,805.304,513.063,805.304,513.063z M826.046,513.063
		c0,0-0.533-0.111-1.597-0.341c-1.065-0.227-2.063-0.563-2.981-1.02c-0.923-0.452-1.787-1.021-2.591-1.699l2.157-2.649
		c0.938,0.815,1.976,1.431,3.105,1.838c1.134,0.404,2.36,0.608,3.688,0.608c1.789,0,3.177-0.332,4.162-0.994
		c0.981-0.663,1.478-1.599,1.478-2.812v-0.021c0-0.857-0.223-1.543-0.671-2.048c-0.448-0.503-1.023-0.877-1.73-1.121
		c-0.709-0.239-1.62-0.467-2.741-0.67c-0.034-0.012-0.071-0.018-0.111-0.018s-0.076-0.005-0.108-0.021l-0.256-0.051
		c-1.65-0.283-2.999-0.604-4.032-0.96c-1.035-0.354-1.926-1.008-2.657-1.954c-0.736-0.941-1.104-2.29-1.104-4.034v-0.017
		c0-1.529,0.343-2.835,1.027-3.916c0.687-1.081,1.685-1.905,2.999-2.472c1.313-0.566,2.894-0.854,4.739-0.854
		c0.883,0,1.753,0.101,2.604,0.289c0.854,0.192,1.699,0.479,2.531,0.858s1.646,0.854,2.455,1.435l-1.974,2.752
		c-0.938-0.688-1.878-1.208-2.813-1.555c-0.935-0.345-1.871-0.52-2.813-0.52c-1.688,0-2.997,0.339-3.936,1.014
		c-0.936,0.673-1.398,1.628-1.398,2.859v0.02c0,0.849,0.237,1.517,0.723,2.004c0.479,0.487,1.081,0.847,1.801,1.078
		c0.72,0.229,1.719,0.474,2.999,0.723c0.045,0.016,0.087,0.021,0.127,0.025s0.082,0.015,0.127,0.022
		c0.058,0.015,0.119,0.022,0.188,0.033c0.063,0.014,0.13,0.023,0.187,0.034c1.494,0.307,2.743,0.669,3.745,1.087
		c1.003,0.419,1.841,1.097,2.515,2.03c0.677,0.933,1.015,2.211,1.015,3.83v0.032c0,1.509-0.356,2.797-1.07,3.862
		c-0.713,1.071-1.747,1.891-3.1,2.446c-1.354,0.563-2.987,0.842-4.901,0.842C826.64,513.063,826.046,513.063,826.046,513.063z"/>
	
		<linearGradient id="SVGID_9_" gradientUnits="userSpaceOnUse" x1="-61.1729" y1="733.2676" x2="54.791" y2="733.2676" gradientTransform="matrix(1 0 0 1 811 -261)">
		<stop  offset="0" style="stop-color:#B34DF7"/>
		<stop  offset="1" style="stop-color:#69D5FF"/>
	</linearGradient>
	
		<circle display="inline" fill="none" stroke="url(#SVGID_9_)" stroke-width="2" stroke-miterlimit="10" cx="807.809" cy="472.268" r="56.982"/>
</g>
<g id="Layer_3" display="none">
	<path display="inline" fill="#B35CF7" d="M831.25,682.25c1.535-1.33-0.129-1.576-0.756-1.835
		c-5.481-2.262-10.041-5.761-13.896-10.362c-6.349-0.23-12.676,0.059-18.894-1.295c-23.597-5.122-42.741-28.328-37.431-57.179
		c2.224-12.079,4.129-24.216,6.18-36.326c2.886-0.371,4.213,2.807,6.847,3.01c-1.854,11.987-3.597,23.995-5.603,35.957
		c-4.396,26.194,17.752,50.131,43.417,46.707c-0.566-2.755-1.286-5.481-1.665-8.262c-0.896-6.526,0.506-8.066,7.093-8.087
		c7.126-0.021,14.253-0.005,21.418-0.005c0.256-1.406,0.431-2.361,0.604-3.316c3.407-0.323,4.541,3.693,7.621,3.995
		c0,9.552,0,19.104,0,29.149c9.884,0,18.973,0,28.061,0c0.507,3.354,4.633,4.401,5.004,7.849
		C863.25,682.25,847.25,682.25,831.25,682.25z M838.355,673.251c0-6.364,0.01-12.329-0.018-18.294
		c-0.004-0.628-0.203-1.255-0.396-2.362c-3.354,0-6.643,0-9.925,0c-3.242,0-6.487,0-9.759,0
		C819.048,663.146,827.825,672.097,838.355,673.251z"/>
	<path display="inline" fill="#69D7D6" d="M966.23,172.391c0.395-0.688,3.079-0.283,1.02-2.141c9.334,0,18.666,0,28,0
		c-1.773,1.143-0.227,1.588,0.512,1.787c21.025,5.689,34.789,20.646,47.213,37.186c11.793,15.7,21.559,32.709,31.166,49.787
		c10.5,18.657,20.824,37.413,31.252,56.11c3.518,6.298,6.193,12.839,6.365,20.182c-3.203,0.542-4.885-2.819-7.793-3.032
		c-1.26-3.586-2.313-7.229-4.188-10.597c-12.618-22.626-24.979-45.399-37.813-67.901c-10.708-18.771-21.828-37.313-36.728-53.229
		c-15.201-16.236-32.922-25.711-55.966-21.135C969.082,176.711,965.861,175.328,966.23,172.391z"/>
	<path display="inline" fill="#A66FEF" d="M1021.25,682.25c-30,0-60,0-90,0c-0.115-3.238-3.332-4.896-4.001-7.854
		c29.995,0,59.991,0.002,89.987,0.003C1017.678,677.475,1021.708,678.715,1021.25,682.25z"/>
	<path display="inline" fill="#9191E6" d="M1144.475,670.347c-3.043,4.569-7.521,7.317-12.292,9.701
		c-1.036,0.521-1.017,0.556-0.933,2.202c-4,0-8,0-12,0c-0.283-3.163-4.428-4.37-3.997-7.894c1.591-1.313,0.791-3.104,0.821-4.656
		c0.163-8.152,0.193-16.311,0.27-24.46c4.359,0.601,6.584,3.546,8.047,7.326c0,6.888,0,13.771,0,20.979
		c6.354-0.944,10.739-4.373,14.875-8.255C1140.639,667.351,1142.316,669.095,1144.475,670.347z"/>
	<path display="inline" fill="#AC64F2" d="M927.249,674.396c0.669,2.953,3.886,4.611,4.001,7.854c-17.334,0-34.666,0-52,0
		c-0.371-3.443-4.497-4.492-5.004-7.849C891.914,674.399,909.582,674.398,927.249,674.396z"/>
	<path display="inline" fill="#9B82EB" d="M1021.25,682.25c0.458-3.535-3.572-4.775-4.014-7.851
		c16.34-0.001,32.68-0.003,49.02-0.003c0.492,3.36,4.631,4.404,4.994,7.854C1054.584,682.25,1037.916,682.25,1021.25,682.25z"/>
	<path display="inline" fill="#948CE7" d="M1071.25,682.25c-0.363-3.445-4.502-4.489-4.994-7.854
		c16.332-0.017,32.664-0.026,48.997-0.041c-0.431,3.521,3.714,4.729,3.997,7.895C1103.25,682.25,1087.25,682.25,1071.25,682.25z"/>
	<path display="inline" fill="#78BFDD" d="M1102.225,378.246c-3.021,11.188-6.047,22.381-9.17,33.945
		c2.686,1.425,5.275,2.835,7.897,4.188c17.271,8.926,34.479,17.984,51.854,26.713c15.561,7.816,24.888,20.119,27.787,37.217
		c2.031,11.96,3.783,23.967,5.66,35.947c-3.181-0.299-4.423-4.471-7.989-4c-1.354-7.688-3.144-15.334-3.979-23.08
		c-2.045-18.928-10.727-32.41-28.646-40.485c-17.254-7.778-33.771-17.188-50.635-25.845c-1.274-0.65-2.406-1.846-4.15-1.479
		c-0.412,0.659-0.841,1.339-1.268,2.018c-2.673-0.226-4.072-3.096-6.771-3.261c4.229-14.956,8.465-29.912,12.692-44.869
		C1098.23,375.167,1099.904,377.434,1102.225,378.246z"/>
	<path display="inline" fill="#8C9EE6" d="M1124.391,652.566c-1.463-3.78-3.688-6.729-8.047-7.326
		c0.02-14.666,0.03-29.332,0.045-43.998c2.908-0.396,4.264,2.834,6.938,2.976c0,13.22,0,26.439,0,40.024
		c8.265,0,15.719-0.026,23.172,0.009c5.438,0.026,6.768,1.481,6.147,6.946c-0.363,3.212-1.021,6.391-1.582,9.8
		c4.868,0.345,9.31-0.157,13.651-1.271c14.982-3.839,23.965-14.001,29.246-28.001c1.265,2.523,3.359,3.935,6.063,4.521
		c-6.799,20.534-24.565,33.223-47.146,33.697c-2.805,0.06-5.604,0.267-8.409,0.4c-2.156-1.252-3.836-2.996-5.209-5.057
		c2.346-3.732,5.068-7.313,5.174-12.725C1137.555,652.566,1130.973,652.566,1124.391,652.566z"/>
	<path display="inline" fill="#81B1E1" d="M1200.029,636.245c-2.705-0.589-4.801-1.996-6.064-4.521
		c0.816-5.415,1.855-10.817,0.949-16.33c-3.068-18.655-6.203-37.308-9.222-55.975c-2.541-15.71-4.956-31.438-7.43-47.163
		c3.566-0.471,4.813,3.701,7.989,4c2.576,14.91,5.23,29.811,7.709,44.732c2.975,17.895,5.803,35.813,8.679,53.724
		C1203.836,622.136,1202.768,629.295,1200.029,636.245z"/>
	<path display="inline" fill="#75C4DB" d="M1102.225,378.246c-2.316-0.813-3.994-3.079-6.716-2.991
		c1.487-5.412,2.978-10.823,4.462-16.231c2.408-8.76,5.479-17.414,3.994-26.754c2.908,0.209,4.59,3.574,7.793,3.032
		c0.966,3.839,0.353,7.677-0.54,11.358C1108.646,357.305,1105.738,367.864,1102.225,378.246z"/>
	<path display="inline" fill="#9191E6" d="M853.184,421.088c5.344-2.938,10.685-5.879,16.288-8.965
		c-2.93-10.667-5.819-21.201-8.716-31.736c3.543-0.254,4.859,4.422,8.541,3.861c3.006,10.166,6.19,20.282,8.963,30.51
		c2.563,9.453,7.898,16.717,15.975,22.086c2.213,1.476,4.463,2.893,6.702,4.317c2.598,1.654,4.771,3.652,2.438,6.827
		c-2.135,2.902-4.521,1.376-6.959-0.074c-11.041-6.572-20.617-14.461-24.716-27.443c-5.188,2.463-9.81,4.654-14.425,6.849
		C855.908,425.239,854.546,423.163,853.184,421.088z"/>
	<path display="inline" fill="#A66FEF" d="M772.51,538.242c3.271-20.134,6.472-40.279,9.857-60.396
		c0.938-5.578,2.82-10.912,6.182-15.594c3.041,0.047,4.547,2.146,5.917,4.426c-4.674,8.996-5.563,18.94-7.22,28.697
		c-2.602,15.305-5.244,30.604-7.869,45.904C776.717,541.108,775.391,537.918,772.51,538.242z"/>
	<path display="inline" fill="#75C4DB" d="M966.23,172.391c-0.369,2.938,2.852,4.32,3.041,7.018
		c-14.577,4.464-25.805,13.681-35.641,24.949c-5.881,6.738-10.729,14.242-16.188,21.287c-1.617-2.021-4.188-3.143-5.299-5.639
		c11.644-18.087,24.721-34.74,44.705-44.412C959.832,174.152,962.887,172.818,966.23,172.391z"/>
	<path display="inline" fill="#8C9EE6" d="M869.297,384.248c-3.682,0.563-4.998-4.115-8.541-3.861
		c-3.479-11.867-7.455-23.604-9.761-35.785c-1.62-8.559-0.13-16.748,3.699-24.533c2.736,0.17,4.179,3.052,6.882,3.302
		c-4.209,9.796-3.84,19.646-0.831,29.713C863.829,363.4,866.465,373.854,869.297,384.248z"/>
	<path display="inline" fill="#87A6E3" d="M861.576,323.368c-2.703-0.25-4.146-3.132-6.882-3.302
		c6.033-11.863,12.513-23.48,19.396-34.873c2.938-0.402,4.394,2.57,6.938,3.052C874.546,299.954,868.061,311.661,861.576,323.368z"
		/>
	<path display="inline" fill="#78BFDD" d="M912.148,220.006c1.105,2.496,3.68,3.618,5.297,5.639
		c-6.4,10.521-12.802,21.041-19.201,31.563c-2.033-1.724-4.258-3.265-5.492-5.751C898.719,240.665,904.818,229.956,912.148,220.006z
		"/>
	<path display="inline" fill="#9B82EB" d="M794.466,466.68c-1.37-2.275-2.876-4.379-5.917-4.426
		c4.426-7.882,10.836-13.674,18.832-17.756c4.253-2.171,8.566-4.225,12.854-6.331c0.161,2.625,3.324,3.903,3.021,6.737
		C812.512,450.647,800.886,455.223,794.466,466.68z"/>
	<path display="inline" fill="#948CE7" d="M823.256,444.904c0.305-2.834-2.859-4.112-3.021-6.737
		c10.756-6.132,21.745-11.81,32.945-17.079c1.362,2.075,2.729,4.151,4.091,6.229C845.933,433.178,834.594,439.041,823.256,444.904z"
		/>
	<path display="inline" fill="#AC64F2" d="M772.51,538.242c2.881-0.324,4.207,2.866,6.867,3.039
		c-1.482,12.416-3.51,24.743-6.075,36.979c-2.634-0.203-3.961-3.381-6.847-3.01C768.473,562.916,770.492,550.579,772.51,538.242z"/>
	<path display="inline" fill="#81B1E1" d="M892.752,251.456c1.234,2.487,3.459,4.028,5.492,5.751
		c-5.737,10.346-11.475,20.693-17.213,31.039c-2.549-0.48-4.002-3.455-6.938-3.053C879.855,273.695,886.203,262.52,892.752,251.456z
		"/>
	<path display="inline" fill="#AC64F2" d="M846.189,589.253c0,18.666-0.002,37.333-0.005,55.999
		c-3.079-0.302-4.216-4.318-7.62-3.995c0-18.667-0.002-37.334-0.002-56.001C841.971,584.935,843.104,588.958,846.189,589.253z"/>
	<path display="inline" fill="#81B1E1" d="M1089.588,423.384c-4.658,13.643-15.747,20.622-27.205,26.913
		c-3.387-0.908-4.494-2.777-3.832-6.547c9.146-6.193,19.91-11.717,24.268-23.627
		C1085.516,420.288,1086.915,423.158,1089.588,423.384z"/>
	<path display="inline" fill="#87A6E3" d="M1116.389,601.242c0.024-19.334,0.049-38.667,0.074-58
		c2.881-0.355,4.207,2.846,6.865,3.002c0.455,19.325,0.443,38.646-0.002,57.974C1120.648,604.076,1119.297,600.846,1116.389,601.242
		z"/>
	<path display="inline" fill="#75C4DB" d="M986.256,291.236c4.445-0.211,8.545,1.242,12.534,2.875
		c18.755,7.68,37.516,15.347,56.175,23.255c10.809,4.581,16.73,14.263,16.363,25.646c-0.076,2.377-0.82,4.408-1.87,6.577
		c-2.816,5.82-5.159,11.869-7.69,17.827c-2.521-0.313-4.469-1.814-6.484-3.164c1.939-4.917,3.852-9.85,5.84-14.748
		c4.4-10.847,0.7-20.337-10.104-24.854c-19.875-8.311-39.837-16.412-59.763-24.604C990.387,296.66,986.388,295.045,986.256,291.236z
		"/>
	<path display="inline" fill="#81B1E1" d="M1123.328,546.244c-2.658-0.156-3.984-3.357-6.865-3.002
		c-0.037-16.479-0.063-32.955-0.115-49.436c-0.023-9.188-3.463-12.617-12.65-12.668c-14.813-0.072-29.622-0.139-44.438-0.207
		c0.301-3.396-3.711-4.529-4.006-7.616c17.129-0.053,34.26-0.292,51.385-0.067c9.011,0.119,16.59,7.506,16.736,16.635
		C1123.677,508.665,1123.379,527.457,1123.328,546.244z"/>
	<path display="inline" fill="#8C9EE6" d="M974.277,438.328c-8.619,0.053-17.254,0.456-25.854,0.073
		c-11.658-0.521-20.882-6.106-26.105-16.437c-7.986-15.789-14.898-32.104-21.021-48.732c1.952-0.078,3.405,0.863,4.675,2.229
		c1.688,1.815,3.563,3.341,6.104,3.785c5.348,12.17,10.648,24.36,16.058,36.504c4.54,10.2,12.653,15.064,23.646,15.337
		c6.488,0.161,12.982,0.154,19.478,0.228C970.84,434.266,974.044,435.655,974.277,438.328z"/>
	<path display="inline" fill="#9B82EB" d="M886.245,480.941c-8.827,0.063-17.653,0.146-26.479,0.191
		c-10.051,0.057-13.334,3.396-13.377,13.621c-0.052,12.492-0.131,24.985-0.198,37.479c-3.114,0.456-4.577-3.287-7.63-3.003
		c-0.057-12.782-0.377-25.569-0.087-38.347c0.233-10.289,8.056-17.604,18.389-17.729c8.794-0.108,17.593,0.091,26.389,0.152
		C882.799,476.424,886.547,477.888,886.245,480.941z"/>
	<path display="inline" fill="#87A6E3" d="M912.072,379.251c-2.541-0.444-4.416-1.97-6.104-3.785
		c-1.27-1.368-2.723-2.312-4.675-2.229c-3.989-8.539-7.379-17.353-9.501-26.5c-2.063-8.916,0.127-17.033,7.082-23.475
		c0.75,2.713,3.874,3.911,4.34,6.807c-4.182,6.267-4.771,12.802-2.018,19.865C904.984,359.645,908.463,369.473,912.072,379.251z"/>
	<path display="inline" fill="#A66FEF" d="M838.561,529.233c3.053-0.284,4.516,3.46,7.63,3.003c0,19.005,0.004,38.011,0.004,57.017
		c-3.091-0.295-4.224-4.318-7.631-3.997C838.563,566.582,838.561,547.908,838.561,529.233z"/>
	<path display="inline" fill="#78BFDD" d="M986.256,291.236c0.132,3.809,4.131,5.424,4.999,8.813
		c-9.21-1.987-18.06-1.138-26.725,2.769c-6.643,2.992-13.504,5.479-20.271,8.192c0.031-2.901-2.438-4.71-3.193-7.269
		c12.263-4.811,23.775-11.768,37.312-12.928C981.03,290.589,983.664,290.454,986.256,291.236z"/>
	<path display="inline" fill="#87A6E3" d="M1055.254,473.315c0.295,3.087,4.307,4.221,4.006,7.616c-16.668,0-33.336,0-50.004,0
		c0.202-3.014-2.469-4.895-3.004-7.614C1022.586,473.316,1038.92,473.316,1055.254,473.315z"/>
	<path display="inline" fill="#81B1E1" d="M941.064,303.743c0.758,2.559,3.229,4.364,3.193,7.269
		c-10.491,4.379-20.954,8.846-31.502,13.086c-3.582,1.441-6.801,3.275-9.542,5.971c-0.467-2.896-3.591-4.094-4.341-6.807
		c1.804-2.527,4.388-4.062,7.151-5.205C917.686,313.232,929.383,308.506,941.064,303.743z"/>
	<path display="inline" fill="#87A6E3" d="M974.277,438.328c-0.233-2.673-3.438-4.063-3.028-7.012
		c9.438-0.069,18.876-0.153,28.313-0.201c7.27-0.037,14.593,0.531,21.604-2.102c1.35,2.081,2.799,4.078,4.791,5.611
		c-3.401,2.276-7.217,3.521-11.234,3.67C1001.246,438.813,987.76,438.8,974.277,438.328z"/>
	<path display="inline" fill="#948CE7" d="M886.245,480.941c0.302-3.058-3.446-4.521-2.998-7.629
		c14.334-0.006,28.667-0.006,43.001-0.008c0.482,2.748,3.723,4.412,2.999,7.638C914.913,480.942,900.579,480.942,886.245,480.941z"
		/>
	<path display="inline" fill="#8C9EE6" d="M1006.252,473.317c0.535,2.724,3.206,4.604,3.004,7.614
		c-14.333,0.001-28.666,0.003-42.999,0.003c0.065-2.962-2.843-4.752-3.007-7.62C977.584,473.316,991.918,473.316,1006.252,473.317z"
		/>
	<path display="inline" fill="#78BFDD" d="M1055.279,364.255c2.02,1.349,3.963,2.854,6.488,3.164
		c-5.217,12.606-10.431,25.213-15.645,37.819c-2.707-0.354-3.803-3.121-6.105-4.076
		C1044.67,388.68,1049.777,376.386,1055.279,364.255z"/>
	<path display="inline" fill="#9191E6" d="M963.25,473.314c0.164,2.868,3.072,4.658,3.007,7.62
		c-12.337,0.005-24.673,0.007-37.01,0.008c0.724-3.226-2.517-4.89-2.999-7.638C938.582,473.311,950.916,473.313,963.25,473.314z"/>
	<path display="inline" fill="#81B1E1" d="M1040.02,401.162c2.309,0.955,3.4,3.723,6.107,4.076c-3.318,8.811-5.951,18-13.226,24.674
		c-2.07,1.896-4.205,3.77-6.942,4.717c-1.992-1.533-3.44-3.53-4.791-5.611c7.104-3.938,11.641-9.9,14.296-17.527
		C1036.696,407.945,1038.482,404.598,1040.02,401.162z"/>
</g>
<g id="Layer_4" display="none">
</g>
<g id="Layer_5" display="none">
	
		<linearGradient id="SVGID_10_" gradientUnits="userSpaceOnUse" x1="-610.8848" y1="687.2246" x2="-180.29" y2="687.2246" gradientTransform="matrix(1 0 0 1 811 -261)">
		<stop  offset="0" style="stop-color:#B34DF7"/>
		<stop  offset="1" style="stop-color:#69D5FF"/>
	</linearGradient>
	<path display="inline" fill="none" stroke="url(#SVGID_10_)" stroke-width="8" stroke-miterlimit="10" d="M521.064,589.253
		c0,0-69.138,88.1-105.646,91.983 M309.768,584.71c0,0,69.136,92.644,105.647,96.526 M415.418,366.613c0,0-61.759,0-97.498,0
		c-35.739,0-73.02,88.362-73.02,88.362s-40.785,80.603-40.785,94.193s27.188,33.019,56.321,44.669
		c29.132,11.652,40.785,9.71,57.483-23.306c16.698-33.019-57.483-52.438-57.483-52.438 M570.392,518.099
		c0,0-74.178,19.423-57.479,52.438c16.697,33.016,28.35,34.958,57.479,23.306c29.134-11.649,56.318-31.073,56.318-44.669
		c0-13.595-40.783-94.189-40.783-94.189s-37.274-88.366-73.016-88.366c-35.736,0-97.493,0-97.493,0 M415.419,171.234
		c-45.263,0-81.957,36.692-81.957,81.957c0,45.264,36.694,81.959,81.957,81.959s81.957-36.693,81.957-81.959
		C497.375,207.928,460.682,171.234,415.419,171.234z M375.461,521.846c-7.308-6.924-11.729-0.188-11.729-0.188
		s-2.335,2.813-10.771,11.538c-8.414,8.696,0,15,0,15s28.756,31.514,39.616,41.538c10,9.229,17.688,0,17.688,0
		s62.666-66.455,68.85-72.66c8.077-8.109,2.347-13.454,2.347-13.454s0.042,0.291-8.728-8.086
		c-9.831-9.395-13.234-6.938-17.657-3.107l-54.812,53.654C400.27,546.077,382.769,528.77,375.461,521.846z M415.252,410.438
		c-13.87,0-60.36,19.036-60.36,19.036s-30.506,10.373-40.814,14.546c-10.33,4.186-11.56,22.874-11.56,22.874V509.7 M526.907,493.703
		l0.246-26.813c0,0-1.23-18.688-11.563-22.874c-10.31-4.173-40.813-14.546-40.813-14.546s-46.49-19.032-60.36-19.032"/>
</g>
<g id="Layer_6" display="none">
	<path display="inline" d="M685.065,264.229c16.354,6.09,34.253,9.713,48.755,18.772c32.752,20.459,52.928,49.655,49.229,90.535
		c-0.811,8.97-3.622,17.933-6.67,26.488c-4.665,13.094-9.757,26.104-15.703,38.655c-11.661,24.617-19.286,49.851-16.107,77.521
		c0.351,3.066-1.475,6.387-2.284,9.589c-36.104,0-72.203,0-108.308,0c-0.761-8.998-1.66-17.987-2.224-26.999
		c-0.313-5.006-0.056-10.048-0.056-15.991c-8.132,0.797-15.115,1.701-22.128,2.121c-13.871,0.831-22.879-7.228-22.742-21.104
		c0.138-13.809,1.229-27.604,1.972-42.816c-10.369,0-20,0-31.133,0c0.867-4.063,0.917-6.721,1.997-8.858
		c2.289-4.529,4.813-9.012,7.771-13.131c10.896-15.181,16.243-31.431,17.322-50.662c2.287-40.793,29.896-71.569,69.415-81.738
		c2.183-0.561,4.25-1.576,6.37-2.381C668.717,264.229,677.094,261.796,685.065,264.229z M737.584,516.725
		c-8.32-35.387,8.389-64.051,20.271-93.871c3.146-7.89,6.095-15.863,9.51-23.638c14.037-31.938,8.84-60.897-12.979-87.534
		c-26.597-32.466-72.268-46.541-108.021-33.121c-33.774,12.676-53.469,40.811-53.576,78.768c-0.035,12.145-2.62,22.527-9.493,32.38
		c-4.699,6.735-8.384,14.176-13.78,23.466c10.729,0,18.979,0,28.584,0c-1.03,16.446-2.176,31.289-2.836,46.153
		c-0.621,13.957,4.561,18.271,18.415,16.553c8.52-1.056,17.095-1.609,26.799-2.494c0,15.961,0,29.434,0,43.34
		C672.627,516.725,703.773,516.725,737.584,516.725z"/>
</g>
<g id="Layer_7" display="none">
	
		<linearGradient id="SVGID_11_" gradientUnits="userSpaceOnUse" x1="111.1582" y1="585.8828" x2="338.1304" y2="585.8828" gradientTransform="matrix(1 0 0 1 811 -261)">
		<stop  offset="0" style="stop-color:#B34DF7"/>
		<stop  offset="1" style="stop-color:#69D5FF"/>
	</linearGradient>
	<path display="inline" fill="url(#SVGID_11_)" d="M1148.386,336.063c-0.65,10.483-3.377,20.481-7.114,30.234
		c-0.713,1.863-1.595,3.662-2.397,5.487c-0.121-0.206-0.221-0.435-0.369-0.621c-11.483-14.614-22.962-29.231-34.459-43.834
		c-14.78-18.777-29.575-37.539-44.364-56.31c-13.394-17-26.81-33.981-40.146-51.027c-1.604-2.051-3.764-3.811-4.279-6.59
		c11.533-2.248,23.133-2.408,34.773-1.027c0.389,0.046,0.76,0.225,1.139,0.342c0.26,1.231,1.05,2.156,1.795,3.104
		c13.406,17.08,26.802,34.166,40.22,51.234c17.194,21.875,34.396,43.745,51.643,65.574
		C1145.826,333.904,1146.515,335.639,1148.386,336.063z M987.342,222.452c2.316,4.368,5.771,7.897,8.758,11.761
		c8.751,11.313,17.69,22.475,26.54,33.707c0.711,0.898,1.376,1.805,2.646,1.895c0.047-2.332,0.058-4.666,0.142-6.998
		c0.207-5.768,4.576-10.021,10.249-10.021c5.671-0.001,10.104,4.248,10.236,10.021c0.145,6.359,0.113,12.724,0.16,19.084
		c1.261,0.084,2.014,0.951,2.709,1.836c11.912,15.174,23.797,30.371,35.724,45.527c12.971,16.488,25.973,32.951,38.979,49.409
		c2.231,2.823,4.051,6.021,7.055,8.185c3.357-4.703,6.062-9.77,8.332-15.071c-0.121-0.206-0.221-0.435-0.369-0.621
		c-11.483-14.614-22.962-29.231-34.459-43.834c-14.78-18.776-29.575-37.539-44.364-56.31c-13.394-17-26.81-33.981-40.146-51.027
		c-1.604-2.053-3.763-3.811-4.279-6.592C1005.532,215.133,996.182,218.005,987.342,222.452z M1148.727,334.427
		c1.013-12.709,0.185-25.297-3.216-37.59c-10.423-37.72-33.979-63.756-70.303-78.192c-7.705-3.063-15.739-5.127-24.043-5.929
		c0.26,1.231,1.05,2.156,1.795,3.104c13.406,17.08,26.802,34.164,40.22,51.234c17.194,21.872,34.396,43.743,51.643,65.572
		c1.008,1.277,1.696,3.012,3.564,3.438C1148.501,335.518,1148.683,334.977,1148.727,334.427z M1072.7,419.828
		c-12.263-15.738-24.665-31.365-37.013-47.035c-15.938-20.22-31.875-40.439-47.8-60.668c-13.231-16.814-26.438-33.658-39.688-50.457
		c-1.12-1.419-1.901-3.221-3.775-3.938c-3.638,4.66-6.787,9.621-9.285,14.984c1.063,0.023,1.756,0.592,2.396,1.404
		c14.237,18.166,28.479,36.332,42.762,54.468c16.521,20.981,33.081,41.927,49.604,62.903c10.602,13.455,21.158,26.941,31.756,40.408
		c0.729,0.932,1.113,1.938,1.097,3.111c5.813-1.387,11.509-3.107,16.919-5.688C1078.007,425.68,1075.108,422.918,1072.7,419.828z
		 M1014.457,433.281c-9.732-12.391-19.463-24.777-29.202-37.158c-10.286-13.079-20.59-26.143-30.873-39.225
		c-9.785-12.449-19.549-24.914-29.331-37.365c-0.646-0.823-1.353-1.608-2.447-1.861c-0.914,8.471-0.358,16.919,1.095,25.25
		c5.771,33.046,22.63,58.956,50.69,77.394c12.646,8.309,26.506,13.719,41.473,16.195
		C1015.988,435.172,1015.204,434.232,1014.457,433.281z M1100.165,410.496c-10.983-13.973-22.018-27.91-33.037-41.854
		c-0.563-0.717-0.926-1.506-0.996-2.42c-3.099-0.313-5.563-1.761-7.743-3.964c-9.612-9.69-19.255-19.37-28.978-28.961
		c-2.819-2.782-4.161-5.909-4.051-9.881c0.138-4.812-0.038-9.631-0.076-14.448c-2.688-0.563-3.703-2.998-5.147-4.824
		c-17.438-22.068-34.808-44.199-52.184-66.32c-0.659-0.84-1.314-1.635-2.422-1.868c-4.467,3.235-8.508,6.944-12.146,11.091
		c3.476,2.617,5.628,6.385,8.271,9.702c13.563,17.071,27.025,34.231,40.508,51.375c11.982,15.248,23.928,30.528,35.919,45.771
		c12.937,16.446,25.958,32.822,38.837,49.312c5.146,6.594,10.576,12.971,15.326,19.869c3.976-2.008,7.663-4.457,11.104-7.281
		C1103.097,413.545,1101.436,412.111,1100.165,410.496z M944.424,257.73c1.874,0.717,2.655,2.519,3.775,3.938
		c13.255,16.799,26.457,33.643,39.688,50.457c15.925,20.229,31.86,40.448,47.8,60.668c12.348,15.669,24.75,31.296,37.013,47.035
		c2.407,3.09,5.307,5.852,6.966,9.5c4.424-1.621,8.619-3.697,12.577-6.254c-4.75-6.898-10.179-13.275-15.326-19.869
		c-12.879-16.486-25.9-32.862-38.837-49.309c-11.991-15.244-23.938-30.524-35.919-45.772
		c-13.479-17.144-26.941-34.302-40.509-51.375c-2.643-3.317-4.794-7.085-8.271-9.702
		C950.006,250.279,947.053,253.869,944.424,257.73z M1036.151,438.201c-0.464-2.906-2.829-4.592-4.472-6.693
		c-12.199-15.67-24.488-31.271-36.778-46.875c-14.729-18.691-29.487-37.367-44.225-56.058c-7.268-9.222-14.498-18.468-21.757-27.695
		c-0.992-1.261-2.056-2.466-3.088-3.696c-1.942,6.692-3.001,13.524-3.232,20.488c1.099,0.253,1.804,1.039,2.447,1.861
		c9.782,12.451,19.546,24.917,29.331,37.365c10.283,13.084,20.587,26.146,30.873,39.225c9.739,12.381,19.47,24.771,29.202,37.158
		c0.747,0.951,1.531,1.891,1.398,3.229C1022.561,437.813,1029.313,438.5,1036.151,438.201z M929.98,283.954
		c18.752,23.808,37.489,47.619,56.252,71.42c20.647,26.198,41.313,52.385,61.972,78.583c0.801,1.014,1.569,2.059,1.492,3.459
		c4.418-0.434,8.763-1.264,13.051-2.4c0.02-1.174-0.365-2.184-1.097-3.111c-10.598-13.463-21.154-26.953-31.759-40.408
		c-16.521-20.979-33.085-41.921-49.604-62.902c-14.278-18.138-28.521-36.304-42.765-54.469c-0.638-0.813-1.33-1.381-2.393-1.402
		C932.997,276.27,931.402,280.072,929.98,283.954z M925.836,297.184c1.032,1.229,2.096,2.437,3.088,3.696
		c7.259,9.229,14.489,18.474,21.757,27.695c14.733,18.688,29.495,37.364,44.225,56.058c12.29,15.604,24.58,31.206,36.778,46.875
		c1.643,2.104,4.008,3.787,4.472,6.693c4.545,0.252,9.051-0.166,13.545-0.785c0.078-1.4-0.691-2.445-1.492-3.459
		c-20.656-26.197-41.32-52.385-61.972-78.583c-18.761-23.802-37.499-47.612-56.251-71.42
		C928.236,288.25,926.7,292.611,925.836,297.184z M1025.284,269.814c-1.271-0.092-1.936-0.996-2.646-1.896
		c-8.85-11.23-17.788-22.396-26.538-33.707c-2.985-3.861-6.439-7.395-8.76-11.761c-7.896,3.487-15.163,8-21.811,13.504
		c1.104,0.233,1.763,1.028,2.422,1.868c17.376,22.121,34.744,44.251,52.184,66.32c1.444,1.826,2.465,4.26,5.147,4.824
		C1025.482,295.918,1025.48,282.866,1025.284,269.814z M1095.842,360.698c-10.346-13.153-20.692-26.308-31.037-39.466
		c-5.468-6.959-10.917-13.937-16.374-20.903c-0.607-0.782-1.293-1.442-2.355-1.509c0,7.16,0,14.318,0,21.668
		c0.289,0.766,1.11,1.33,1.787,2.004c8.188,8.209,16.309,16.482,24.627,24.561c3.405,3.311,5.03,6.979,4.171,11.672
		c3.446,2.518,5.521,6.229,8.107,9.473c9.517,11.912,18.896,23.927,28.313,35.912c0.554,0.697,1.063,1.426,2.02,1.604
		c3.216-2.873,6.13-6.016,8.643-9.525C1114.439,384.354,1105.143,372.527,1095.842,360.698z M1130.538,386.855
		c-3.004-2.166-4.819-5.359-7.056-8.186c-13.011-16.458-26.012-32.921-38.979-49.408c-11.927-15.156-23.812-30.354-35.724-45.527
		c-0.695-0.887-1.448-1.752-2.709-1.836c-0.195,5.641-0.199,11.278,0,16.92c1.063,0.065,1.748,0.728,2.355,1.509
		c5.457,6.97,10.906,13.944,16.374,20.903c10.341,13.16,20.691,26.313,31.037,39.465c9.301,11.83,18.6,23.654,27.896,35.483
		C1126.354,393.326,1128.612,390.213,1130.538,386.855z M1066.132,366.225c0.07,0.914,0.433,1.702,0.996,2.418
		c11.021,13.943,22.054,27.884,33.037,41.854c1.27,1.615,2.932,3.049,3.184,5.297c4.297-2.92,8.215-6.281,11.75-10.084
		c-0.957-0.178-1.465-0.902-2.019-1.604c-9.421-11.984-18.801-24.001-28.313-35.913c-2.588-3.243-4.662-6.954-8.106-9.473
		C1074.759,363.484,1071.332,366.102,1066.132,366.225z"/>
	
		<linearGradient id="SVGID_12_" gradientUnits="userSpaceOnUse" x1="-49.0898" y1="685.4043" x2="402.1724" y2="685.4043" gradientTransform="matrix(1 0 0 1 811 -261)">
		<stop  offset="0" style="stop-color:#B34DF7"/>
		<stop  offset="1" style="stop-color:#69D5FF"/>
	</linearGradient>
	<path display="inline" fill="none" stroke="url(#SVGID_12_)" stroke-width="8" stroke-miterlimit="10" d="M1027.363,166.434
		c0,0,62.315-4.812,129.257,55.09c81.622,73.041,49.344,174.594,27.348,221.009c-10.438,22.021-32.769,86.56-32.769,86.56
		s-19.464,73.716-22.395,132.477c-1.141,22.926-22.229,20.888-22.229,20.888l-166.135-0.094c0,0-27.063,2.263-27.063-24.22
		c0-28.539,0-70.775,0-70.775l-55.126-0.569c0,0-45.371,1.632-41.098-46.612c6.771-76.452,6.814-34.718,5.707-75.623h-46.804
		c0,0-22.832,2.94,0-34.729c22.829-37.672,37.976-60.833,38.433-88.879c1.062-65.144,30.996-100.838,42.509-117.947
		C857.005,223,902.614,163.199,1027.363,166.434z"/>
</g>
<g id="Layer_8" display="none">
	<path display="inline" fill="#508DF6" d="M940.28,412.396c-0.034-0.023-0.313,0.182-0.353,0.313
		c-0.305,1.094-0.708,2.181-0.845,3.299c-5.054,41.325-19.354,79.186-42.851,113.521c-14.266,20.841-31.057,39.393-51.107,54.871
		c-27.73-22.615-55.471-45.23-83.206-67.85c20.104-12.435,37.175-28.026,50.189-47.897c5.306-8.104,9.598-16.713,13.646-25.49
		c1.99-4.314,0.521-4.8-3.453-4.789c-40.832,0.104-81.666,0.063-122.5,0.063c-9.104,0-9.104,0-9.104-9.183
		c0-28.999,0.084-58-0.094-86.999c-0.025-4.152,1.104-5.229,5.253-5.223c78.499,0.127,156.999,0.119,235.497,0.014
		c3.799-0.005,5.775,0.592,5.985,4.9c0.233,4.801,1.209,9.566,1.962,14.337"/>
	<path display="inline" fill="#EF4336" d="M715.997,130.864c33.296,4.03,64.536,14.305,93.812,30.62
		c12.537,6.988,24.33,15.067,35.604,23.961c2.584,2.039,2.555,2.962,0.001,5.037c-25.731,20.898-51.391,41.893-76.954,62.994
		c-2.425,2-4.063,1.719-6.51,0.315c-83.146-47.593-185.771-10.842-219.83,78.662c-0.354,0.925-0.82,1.805-1.234,2.705
		c-1.837-1.421-3.707-2.8-5.506-4.269c-25.862-21.084-51.714-42.178-77.569-63.27c0.689-1.5,1.302-3.042,2.08-4.492
		c14.442-26.79,33.106-50.27,56.002-70.273c39.669-34.66,85.662-55.408,137.998-61.988"/>
	<path display="inline" fill="#28B346" d="M653.886,639.098c-51.308-6.431-96.617-26.496-135.825-60.125
		c-23.979-20.566-43.73-44.653-58.35-72.798c27.548-22.496,55.095-44.993,82.643-67.489c8.022,19.775,19.021,37.632,34.05,52.905
		c47.773,48.568,121.667,59.57,181.529,27.004c1.313-0.714,2.659-1.358,3.99-2.041c27.735,22.615,55.472,45.23,83.207,67.85
		c-0.212,0.253-0.388,0.552-0.642,0.753c-37.586,29.839-80.186,47.779-127.783,53.896"/>
	<path display="inline" fill="#F9BA00" d="M430.072,357.297c0.194-0.248,0.433-0.54,0.469-0.833
		c1.086-8.901,2.43-17.759,4.418-26.51c4.942-21.755,11.925-42.763,22.847-62.327c25.854,21.092,51.707,42.186,77.569,63.27
		c1.799,1.469,3.669,2.849,5.506,4.269c-4.292,14.679-7.518,29.511-7.979,44.907c-0.606,20.183,2.896,39.628,9.449,58.615
		c-27.547,22.495-55.095,44.992-82.642,67.488c-0.596-0.979-1.25-1.935-1.78-2.95c-14.319-27.438-23.359-56.513-27.091-87.25"/>
</g>
<g id="Layer_9" display="none">
	<path display="inline" fill="#1976D1" d="M844.699,768"/>
	<path display="inline" fill="#1976D1" d="M683,585.5c-68.333,0-136.667,0-205,0c0.109-0.125,0.236-0.239,0.323-0.378
		c0.063-0.104,0.124-0.336,0.104-0.344c-0.884-0.419-1.737-0.945-2.672-1.203c-24.442-6.785-40.041-22.394-46.858-46.824
		c-0.244-0.872,0.351-2.894-1.896-2.251c0-136.666,0-273.334,0-410c0.125,0.109,0.239,0.236,0.377,0.323
		c0.104,0.063,0.336,0.124,0.344,0.106c0.419-0.885,0.945-1.74,1.204-2.673c6.785-24.444,22.394-40.041,46.824-46.862
		c0.873-0.244,2.896,0.352,2.251-1.895c136.667,0,273.334,0,410,0c-0.107,0.125-0.236,0.239-0.322,0.377
		c-0.063,0.103-0.125,0.336-0.104,0.344c0.884,0.419,1.738,0.945,2.672,1.204c24.443,6.785,40.041,22.39,46.862,46.824
		c0.24,0.872-0.354,2.896,1.896,2.25c0,136.666,0,273.334,0,410c-0.125-0.109-0.238-0.236-0.377-0.323
		c-0.104-0.063-0.336-0.124-0.345-0.104c-0.419,0.884-0.944,1.739-1.204,2.672c-6.783,24.445-22.391,40.041-46.823,46.862
		c-0.872,0.24-2.894-0.354-2.251,1.896c-36.334,0-72.666,0-109,0"/>
	<g display="inline">
		<path fill="none" stroke="#1976D1" stroke-width="7" stroke-miterlimit="10" d="M939,528.5c0,31.35-25.65,57-57,57H484
			c-31.35,0-57-25.65-57-57v-398c0-31.35,25.65-57,57-57h398c31.35,0,57,25.65,57,57V528.5z"/>
	</g>
	<path display="inline" fill="#F9F9F9" d="M681.75,590.005c0-58.464,0-116.929,0-175.931c-21.401,0-42.459,0-63.754,0
		c0-26.809,0-53.071,0-79.877c21.029,0,42.088,0,62.896,0c1.343-2.203,0.825-4.074,0.829-5.84
		c0.044-18.664,0.004-37.332,0.031-55.994c0.086-56.271,42.023-98.256,98.24-98.354c20.322-0.034,40.646-0.006,60.926-0.006
		c1.043,3.856,1.446,69.037,0.529,79.418c-1.631,1.104-3.511,0.543-5.271,0.552c-12.165,0.061-24.331,0.041-36.497,0.03
		c-3.506-0.003-6.979,0.195-10.426,0.945c-6.927,1.51-10.996,5.062-11.114,12.166c-0.367,22.114-0.135,44.235-0.135,66.756
		c26.433,0,52.7,0,79.778,0c-10.841,27.104-21.433,53.591-32.055,80.154c-15.993,0-31.639,0-47.982,0c0,58.813,0,117.396,0,175.979
		C745.75,590.005,713.75,590.005,681.75,590.005z"/>
</g>
<g id="Layer_10" display="none">
	
		<linearGradient id="SVGID_13_" gradientUnits="userSpaceOnUse" x1="121.3203" y1="656.6221" x2="121.3203" y2="656.6221" gradientTransform="matrix(1 0 0 1 811 -261)">
		<stop  offset="0" style="stop-color:#B34DF7"/>
		<stop  offset="1" style="stop-color:#69D5FF"/>
	</linearGradient>
	<path display="inline" fill="url(#SVGID_13_)" d="M932.32,395.622"/>
	
		<linearGradient id="SVGID_14_" gradientUnits="userSpaceOnUse" x1="-194.8076" y1="525.0029" x2="9.1963" y2="525.0029" gradientTransform="matrix(1 0 0 1 811 -261)">
		<stop  offset="0" style="stop-color:#B34DF7"/>
		<stop  offset="1" style="stop-color:#69D5FF"/>
	</linearGradient>
	<path display="inline" fill="url(#SVGID_14_)" d="M627.193,379.753c19.501,12,48.002,22,78.003,22c44.5,0,70.5-23.5,70.5-57.5
		c0-31.5-18-49.5-63.5-67c-55.002-19.5-89.004-48-89.004-95.5c0-52.5,43.502-91.5,109.004-91.5c34.5,0,59.5,8,74.5,16.5l-12,35.5
		c-11-6-33.5-16-64-16c-46.001,0-63.501,27.5-63.501,50.5c0,31.5,20.5,47,67.001,65c57,22,86,49.5,86,99c0,52-38.5,97-118,97
		c-32.501,0-68.003-9.5-86.004-21.5L627.193,379.753z"/>
	<g display="inline">
		
			<linearGradient id="SVGID_15_" gradientUnits="userSpaceOnUse" x1="-43.1729" y1="532.7637" x2="-37.1953" y2="532.7637" gradientTransform="matrix(1 0 0 1 811 -261)">
			<stop  offset="0" style="stop-color:#B34DF7"/>
			<stop  offset="1" style="stop-color:#69D5FF"/>
		</linearGradient>
		<path fill="url(#SVGID_15_)" d="M773.805,271.723h-5.978C767.835,271.872,771.002,271.784,773.805,271.723z"/>
		
			<linearGradient id="SVGID_16_" gradientUnits="userSpaceOnUse" x1="-173.5" y1="505.5" x2="34" y2="505.5" gradientTransform="matrix(1 0 0 1 811 -261)">
			<stop  offset="0" style="stop-color:#B34DF7"/>
			<stop  offset="1" style="stop-color:#69D5FF"/>
		</linearGradient>
		<path fill="url(#SVGID_16_)" d="M815.5,102.75c-20-18-51.5-28-94.5-28c-35,0-62.5,3-83.5,6.5v333H681v-301.5c7.5-2,22-3.5,41-3.5
			c48,0,79.5,21.5,79.5,66c0,25.159-17.516,44.254-34.429,56.404c0.021,0.093,0.04,0.187,0.061,0.279
			c-0.011,0.032-0.032,0.056-0.039,0.092c-0.037,0.201,0.04,0.357,0.16,0.469v7.984c-0.063,0.97-0.063,1.948,0,2.94v21.804
			c-0.104,0.195-0.17,0.428-0.17,0.702v4.032c0,0.105,0.018,0.203,0.036,0.298c-0.41,0.179-0.361,0.877,0.134,0.943v0.521h0.574
			c-0.009-0.162-0.011-0.336-0.02-0.502c0.17,0.09,0.358,0.141,0.554,0.163c0.145,0.045,0.298,0.076,0.474,0.075
			c0.192-0.001,0.385-0.012,0.578-0.018c0.039,0.008,0.087,0.002,0.129,0.006c0.346,0.211,0.771,0.289,1.204,0.209
			c0.438-0.08,0.904-0.149,1.312-0.34c0.112-0.002,0.229-0.013,0.337-0.014c0.953,0.329,1.985,0.416,2.994,0.286
			c0.119,0.026,0.238,0.036,0.356,0.065c0.062,0.017,0.118,0.021,0.178,0.027c-0.636,0.008-1.356,0.021-2.118,0.037h3.276v-0.041
			c-0.19-0.002-0.408-0.002-0.645,0c0.253-0.053,0.468-0.172,0.645-0.334v0.334c0.581,0.006,0.938,0.029,0.939,0.08
			c16.195-6.16,30.187-15.015,40.979-26.512c17-17.5,26-41.5,26-72C845,143.25,834,118.75,815.5,102.75z"/>
	</g>
</g>
<path fill="#001C40" d="M119.835,109.979c0-4.806-1.773-8.555-5.325-11.238c-3.55-2.684-9.788-5.465-18.709-8.336
	c-8.927-2.867-16.224-5.648-21.89-8.331c-18.438-8.677-27.654-20.605-27.654-35.776c0-7.555,2.295-14.223,6.889-19.997
	c4.596-5.776,11.092-10.271,19.495-13.487C81.048,9.598,90.49,7.99,100.98,7.99c10.229,0,19.396,1.75,27.509,5.245
	c8.111,3.499,14.415,8.476,18.908,14.938c4.494,6.463,6.742,13.849,6.742,22.151h-34.204c0-5.557-1.773-9.866-5.325-12.925
	c-3.552-3.057-8.354-4.589-14.413-4.589c-6.128,0-10.962,1.298-14.513,3.887c-3.55,2.591-5.325,5.887-5.325,9.881
	c0,3.499,1.953,6.666,5.862,9.507c3.91,2.841,10.782,5.773,20.619,8.802c9.837,3.03,17.916,6.291,24.234,9.787
	c15.374,8.49,23.063,20.193,23.063,35.116c0,11.928-4.692,21.294-14.071,28.099c-9.382,6.807-22.247,10.211-38.599,10.211
	c-11.531,0-21.972-1.982-31.318-5.947c-9.35-3.963-16.386-9.396-21.109-16.297c-4.721-6.901-7.083-14.846-7.083-23.836h34.396
	c0,7.306,1.971,12.692,5.912,16.155c3.945,3.468,10.343,5.198,19.203,5.198c5.668,0,10.146-1.171,13.436-3.514
	C118.192,117.52,119.835,114.229,119.835,109.979z"/>
<path fill="#001C40" d="M283.417,35.245h-42.702v110.979h-34.3V35.245h-41.92V9.863h118.922V35.245z"/>
<path fill="#001C40" d="M350.748,97.991h-18.567v48.233h-34.3V9.863h55.993c16.872,0,30.065,3.588,39.578,10.76
	c9.511,7.172,14.265,17.31,14.265,30.409c0,9.479-2.002,17.338-6.01,23.575c-4.005,6.238-10.276,11.29-18.81,15.157l29.706,55.059
	v1.406h-36.742L350.748,97.991z M332.181,72.707h21.693c6.514,0,11.417-1.641,14.707-4.926c3.287-3.287,4.933-7.872,4.933-13.757
	c0-5.883-1.662-10.499-4.983-13.849c-3.321-3.347-8.207-5.022-14.658-5.022h-21.693v37.553L332.181,72.707L332.181,72.707z"/>
<path fill="#001C40" d="M548.924,80.857c0,13.295-2.575,25.063-7.72,35.304c-5.147,10.241-12.459,18.125-21.938,23.649
	c-9.476,5.524-20.274,8.289-32.393,8.289c-12.12,0-22.869-2.67-32.248-8.012c-9.382-5.339-16.694-12.972-21.938-22.896
	c-5.243-9.932-7.997-21.321-8.254-34.183v-7.68c0-13.362,2.555-25.148,7.67-35.356c5.113-10.209,12.44-18.09,21.985-23.647
	c9.544-5.56,20.409-8.336,32.589-8.336c12.054,0,22.803,2.75,32.248,8.242c9.446,5.492,16.792,13.315,22.035,23.459
	c5.243,10.149,7.896,21.776,7.963,34.889L548.924,80.857L548.924,80.857z M514.038,75.145c0-13.547-2.362-23.836-7.085-30.861
	c-4.727-7.027-11.482-10.537-20.277-10.537c-17.197,0-26.285,12.363-27.264,37.089l-0.096,10.021c0,13.354,2.31,23.629,6.938,30.811
	c4.625,7.182,11.498,10.771,20.619,10.771c8.664,0,15.342-3.525,20.03-10.584c4.691-7.057,7.07-17.199,7.134-30.436L514.038,75.145
	L514.038,75.145z"/>
<path fill="#001C40" d="M685.438,146.227h-34.105l-50.425-84.853v84.853h-34.3V9.863h34.3l50.327,84.852V9.863h34.203V146.227z"/>
<path fill="#001C40" d="M823.613,129.367c-5.275,5.619-12.996,10.146-23.158,13.581c-10.164,3.432-21.303,5.151-33.423,5.151
	c-18.632,0-33.519-5.467-44.658-16.395c-11.14-10.922-17.1-26.129-17.883-45.61l-0.099-11.798c0-13.425,2.476-25.148,7.429-35.169
	c4.947-10.022,12.034-17.733,21.254-23.134c9.217-5.401,19.888-8.102,32.005-8.102c17.72,0,31.48,3.887,41.287,11.661
	c9.803,7.771,15.521,19.372,17.147,34.792h-33.027c-1.177-7.618-3.714-13.05-7.622-16.297c-3.909-3.245-9.449-4.87-16.611-4.87
	c-8.602,0-15.245,3.499-19.935,10.49c-4.691,6.996-7.071,16.986-7.135,29.971v8.243c0,13.609,2.428,23.832,7.279,30.669
	c4.853,6.838,12.492,10.256,22.915,10.256c8.925,0,15.57-1.904,19.932-5.714V95.924H765.47V73.358h58.144V129.367L823.613,129.367z"
	/>
<path fill="#001C40" d="M877.848,99.958v46.269h-34.302V9.863h56.775c10.88,0,20.505,1.92,28.879,5.758
	c8.369,3.842,14.854,9.306,19.445,16.393c4.594,7.087,6.891,15.126,6.891,24.117c0,13.3-4.968,23.93-14.9,31.887
	c-9.938,7.959-23.566,11.941-40.896,11.941L877.848,99.958L877.848,99.958z M877.848,74.581h22.477
	c6.646,0,11.71-1.592,15.195-4.777c3.482-3.187,5.228-7.68,5.228-13.487c0-6.369-1.791-11.458-5.377-15.267
	c-3.581-3.807-8.469-5.747-14.657-5.807h-22.867V74.58L877.848,74.581L877.848,74.581z"/>
<path fill="#001C40" d="M1037.23,120.75h-47.005l-8.209,25.477h-36.644L997.557,9.863h32.245l52.575,136.362h-36.842L1037.23,120.75
	z M998.435,95.368h30.59l-15.343-47.292L998.435,95.368z"/>
<path fill="#001C40" d="M1166.122,109.979c0-4.806-1.774-8.555-5.325-11.238c-3.553-2.684-9.787-5.465-18.712-8.336
	c-8.927-2.867-16.221-5.648-21.89-8.331c-18.438-8.677-27.652-20.605-27.652-35.776c0-7.555,2.295-14.223,6.889-19.997
	c4.595-5.776,11.09-10.271,19.495-13.487c8.404-3.215,17.848-4.823,28.339-4.823c10.228,0,19.396,1.75,27.51,5.245
	c8.109,3.499,14.412,8.476,18.907,14.938c4.494,6.463,6.739,13.849,6.739,22.151h-34.201c0-5.557-1.774-9.866-5.324-12.925
	c-3.554-3.057-8.356-4.589-14.416-4.589c-6.125,0-10.963,1.298-14.511,3.887c-3.55,2.591-5.325,5.887-5.325,9.881
	c0,3.499,1.951,6.666,5.86,9.507c3.911,2.841,10.784,5.773,20.618,8.802c9.84,3.03,17.916,6.291,24.236,9.787
	c15.373,8.49,23.061,20.193,23.061,35.116c0,11.928-4.688,21.294-14.068,28.099c-9.383,6.807-22.246,10.211-38.6,10.211
	c-11.532,0-21.973-1.982-31.318-5.947c-9.351-3.963-16.389-9.396-21.108-16.297c-4.724-6.901-7.085-14.846-7.085-23.836h34.396
	c0,7.306,1.973,12.692,5.912,16.155c3.942,3.468,10.344,5.198,19.203,5.198c5.666,0,10.145-1.171,13.437-3.514
	C1164.479,117.52,1166.122,114.229,1166.122,109.979z"/>
<path fill="#001C40" d="M1291.401,109.979c0-4.806-1.774-8.555-5.325-11.238c-3.552-2.684-9.787-5.465-18.712-8.336
	c-8.927-2.867-16.224-5.648-21.891-8.331c-18.438-8.677-27.653-20.605-27.653-35.776c0-7.555,2.295-14.223,6.891-19.997
	c4.594-5.776,11.09-10.271,19.492-13.487c8.406-3.215,17.85-4.823,28.34-4.823c10.229,0,19.396,1.75,27.509,5.245
	c8.113,3.499,14.415,8.476,18.908,14.938c4.493,6.463,6.741,13.849,6.741,22.151H1291.5c0-5.557-1.775-9.866-5.325-12.925
	c-3.555-3.057-8.355-4.589-14.415-4.589c-6.126,0-10.963,1.298-14.513,3.887c-3.55,2.591-5.325,5.887-5.325,9.881
	c0,3.499,1.953,6.666,5.862,9.507s10.782,5.773,20.619,8.802c9.836,3.03,17.915,6.291,24.235,9.787
	c15.37,8.49,23.061,20.193,23.061,35.116c0,11.928-4.689,21.294-14.071,28.099c-9.38,6.807-22.247,10.211-38.597,10.211
	c-11.534,0-21.973-1.982-31.32-5.947c-9.351-3.963-16.387-9.396-21.106-16.297c-4.724-6.901-7.085-14.846-7.085-23.836h34.397
	c0,7.306,1.969,12.692,5.911,16.155c3.943,3.468,10.341,5.198,19.203,5.198c5.666,0,10.144-1.171,13.436-3.514
	C1289.756,117.52,1291.401,114.229,1291.401,109.979z"/>
</svg>
